<svg xmlns="http://www.w3.org/2000/svg" enable-background="new 0 0 2000 2000" viewBox="61.98 303.942 1872.24 1404.105"><path fill="#eaeff8" fill-rule="evenodd" d="M998.1,1465.7c181.5,0,348.5,2.7,481,7.3c324.3-185.4,212-546.7,95.6-751.1    c-162.1-284.5-545-386.7-703.4-159.7c-215,308.1-422.4,200.6-534.4,434.5c-112,234,58.1,458.2,180.3,476.3    C649.7,1468.4,816.7,1465.7,998.1,1465.7L998.1,1465.7z M714,676.9c-83,63.2-220.3,112.1-265.9,45    c-34.1-50.2,7.9-144.3,90.1-215.7c82.1-71.3,192.2-114.5,252.1-62C861.4,506.5,777.9,628.2,714,676.9z" clip-rule="evenodd"/><path fill="#d2dfee" fill-rule="evenodd" d="M998.1,1465.7c430.9,0,780.1,15.3,780.1,34.2c0,18.9-349.3,34.2-780.1,34.2c-430.9,0-780.1-15.3-780.1-34.2    C218,1481,567.3,1465.7,998.1,1465.7z" clip-rule="evenodd"/><path fill="#fff" fill-rule="evenodd" d="M1249.7,522.5c194.8,43.4,318.8,222.6,331,309.1c5,35.5-4.3-47.6-103.6-123.2c-88.8-67.6-158-80.1-263.7-88.3    c-74.7-5.8-152.9-15-147.3-59.5C1070.4,525.5,1123.9,494.5,1249.7,522.5L1249.7,522.5z M740.2,450.1c33.5,2,54,29.6,55.4,61.3    c0.6,13.5-10-21.8-47.2-26.7c-23.1-3-26.5,3.7-34.8-5.8C705.3,469.4,713.2,448.4,740.2,450.1z" clip-rule="evenodd"/><path fill="#d2dfee" fill-rule="evenodd" d="M495.6,1387c-8.9-11.1-21.4-20.3-25.1-34.1c-4.3-16.3,5.2-33.4,2.8-50c-3-21-23.2-34.6-34.1-52.7    c-10.7-17.7-5.7-23.7-6.7-44.4c-1.5-31.2-27.1-70.6-61.2-60c-34.6,10.7-29,42.9-22.9,67.1c4.3,17.2,1.5,19.7-2.7,37    c-5.1,20.9-21.5,41-14.7,61.4c4.2,12.6,16.6,21.1,21.1,33.6c5.1,14.2-1.1,29.6-3.4,44.4c-5,31.3,2.2,57.3,24.9,83.2    c2.4,2.3,5,4.5,7.6,6.5c31.9-1.8,67.7-3.5,107-4.9l0.3-0.3C509.4,1451,515.6,1412,495.6,1387z" clip-rule="evenodd"/><path fill="#fff" fill-rule="evenodd" d="M387.1,1173.9c-0.5-1.4-2.1-2.1-3.5-1.6c-1.4,0.5-2.1,2.1-1.6,3.5c2.7,7.1,5,14.5,6.9,22.2    c-0.8-0.7-1.6-1.4-2.4-2.1c-3.7-3-7.9-5.6-12.6-7.8c-1.4-0.6-3-0.1-3.6,1.3c-0.6,1.4-0.1,3,1.3,3.6c4.3,2.1,8.2,4.4,11.6,7.1    c3.2,2.6,6,5.4,8.3,8.6c3.5,16.7,5.8,34.7,7.8,53.6c-3.2-4.9-6.6-9.3-10.1-13.3c-6.2-6.8-13.2-12.1-20.8-15.8    c-1.4-0.7-3-0.1-3.7,1.2c-0.7,1.4-0.1,3,1.2,3.7c7,3.4,13.3,8.3,19.2,14.7c5.8,6.3,11,14,15.6,23.1l0.5,5.1    c1.2,11.3,2.4,22.9,3.8,34.7c0,0.1,0,0.2,0,0.3c1.5,12.4,3.2,25,5.4,37.8c-5.9-9.1-12.3-17.2-19.1-24.2    c-10-10.3-20.9-18.3-32.8-24c-1.4-0.7-3-0.1-3.7,1.3c-0.7,1.4-0.1,3,1.3,3.7c11.3,5.5,21.8,13.1,31.3,22.9    c9.5,9.8,18.1,21.7,25.8,35.9c3.4,17,7.7,34.3,13.4,51.8l0,0l0,0.1v0c2.8,8.6,5.9,17.2,9.5,25.9c-8.3-7.1-17.1-13.2-26.4-18.4    c-13-7.2-26.9-12.5-41.7-16c-1.5-0.3-2.9,0.6-3.3,2c-0.3,1.5,0.6,2.9,2,3.3c14.4,3.3,27.8,8.5,40.3,15.4    c12.3,6.9,23.8,15.5,34.3,26c2.4,5.4,5,10.8,7.8,16.2l6-0.3c-9.7-18.6-17.3-37.2-23.3-55.6c-1-13.3,0.6-26.7,4.7-40    c4.3-13.5,11.2-27.1,20.8-40.6c0.9-1.2,0.6-2.9-0.6-3.8c-1.2-0.9-2.9-0.6-3.8,0.6c-9.9,14-17.1,28.1-21.6,42.2    c-2.5,8-4.1,16-4.9,24c-8.2-29.6-12.8-58.6-16.1-86.3c3.2-11.7,6.8-21.6,10.8-29.8c3.9-8.1,8.2-14.3,12.8-18.7    c1.1-1,1.1-2.8,0.1-3.9c-1-1.1-2.8-1.1-3.9-0.1c-5.1,4.8-9.8,11.6-14,20.2c-2.6,5.4-5.1,11.5-7.4,18.4c-0.8-7.3-1.5-14.5-2.3-21.6    l-0.6-5.5c0-0.1,0-0.2,0-0.3C402.1,1237.1,398.2,1202.9,387.1,1173.9z" clip-rule="evenodd"/><path fill="#c5def8" fill-rule="evenodd" d="M404,1401.7c-9.5-5.1-20.9-7.8-27.6-16.3c-7.8-10-6.3-24.8-12.8-35.7c-8.3-13.7-26.4-17.2-39.4-26.6    c-12.7-9.2-11-14.8-17.8-29c-10.3-21.3-39.8-41.2-60.4-23.7c-20.9,17.7-7.5,38.5,4,53.6c8.1,10.7,6.9,13.3,9.1,26.6    c2.6,16-2.8,35,8,47.1c6.7,7.5,17.8,9.8,24.6,17.2c7.7,8.4,8,20.9,10.8,32c3.7,14.7,10.1,26.5,20.2,36c27.3-2.1,59.4-4,95.6-5.8    c2.8-4,5-8.3,6.7-12.9C432.5,1442.2,425.3,1413.2,404,1401.7z" clip-rule="evenodd"/><path fill="#fff" fill-rule="evenodd" d="M265.3,1285.4c-0.8-0.8-2.1-0.8-2.9-0.1c-0.8,0.8-0.8,2.1-0.1,2.9c4,4.1,7.8,8.6,11.4,13.4    c-0.8-0.3-1.5-0.5-2.3-0.7c-3.5-1-7.2-1.5-11.1-1.7c-1.1,0-2.1,0.8-2.1,2c0,1.1,0.8,2.1,2,2.1c3.6,0.1,7,0.7,10.2,1.6    c3,0.8,5.8,2,8.4,3.5c7.4,10.6,14.3,22.4,21.3,35c-3.7-2.5-7.3-4.6-11-6.2c-6.4-2.9-12.7-4.5-19.1-4.9c-1.1-0.1-2.1,0.8-2.2,1.9    c-0.1,1.1,0.8,2.1,1.9,2.2c5.9,0.3,11.8,1.9,17.7,4.5c5.9,2.7,11.8,6.5,17.7,11.4l1.9,3.4c4.2,7.5,8.4,15.2,12.9,23    c0,0.1,0.1,0.2,0.1,0.2c4.7,8.2,9.6,16.4,14.9,24.7c-6.8-4.6-13.6-8.3-20.5-11.2c-10-4.2-20-6.5-30-7c-1.1-0.1-2.1,0.8-2.2,2    c-0.1,1.1,0.8,2.1,2,2.2c9.5,0.4,19,2.7,28.6,6.7c9.5,4,19.1,9.8,28.6,17.3c7.4,10.8,15.5,21.6,24.6,32.1l0,0l0,0l0,0    c4.5,5.2,9.2,10.2,14.3,15.2c-7.9-2.5-15.8-4.2-23.8-5c-11.2-1.2-22.4-0.8-33.8,1.2c-1.1,0.2-1.9,1.3-1.7,2.4    c0.2,1.1,1.3,1.9,2.4,1.7c11-1.9,21.9-2.3,32.7-1.2c10.6,1.1,21.2,3.8,31.6,7.9c3.6,3.3,7.3,6.6,11.2,9.8l6.2-0.3    c-13.5-10.8-25.3-22.4-35.7-34.3c-4.7-9-7.5-18.8-8.5-29.3c-1-10.7-0.2-22.2,2.5-34.5c0.2-1.1-0.5-2.2-1.6-2.5    c-1.1-0.2-2.2,0.5-2.5,1.6c-2.8,12.7-3.6,24.6-2.5,35.8c0.6,6.3,1.9,12.4,3.7,18.1c-14.5-18.2-26.3-37.1-36.8-55.3    c-1.2-9.1-1.7-17.1-1.3-23.9c0.4-6.8,1.5-12.4,3.4-16.8c0.5-1,0-2.3-1.1-2.7c-1-0.5-2.3,0-2.7,1.1c-2.1,4.9-3.4,11-3.8,18.3    c-0.2,4.5-0.1,9.5,0.3,15c-2.7-4.8-5.4-9.6-8-14.4l-2-3.7c0-0.1-0.1-0.1-0.1-0.2C294.5,1325,281.6,1302.3,265.3,1285.4z" clip-rule="evenodd"/><path fill="#d2dfee" fill-rule="evenodd" d="M1466.2,1376.4c9.7-12.2,23.4-22.2,27.4-37.2c4.7-17.7-5.7-36.4-3.1-54.6c3.2-22.9,25.3-37.7,37.2-57.5    c11.7-19.4,6.2-25.9,7.3-48.5c1.6-34.1,29.5-77,66.8-65.5c37.8,11.7,31.6,46.8,25,73.3c-4.7,18.8-1.6,21.5,3,40.4    c5.6,22.8,23.5,44.8,16,67c-4.6,13.7-18.1,23-23,36.7c-5.5,15.5,1.2,32.3,3.7,48.5c5.4,34.2-2.4,62.6-27.2,90.8    c-3,2.9-6.1,5.5-9.4,7.9c-34.3-1.7-72.6-3.3-114.3-4.8c-0.6-0.6-1.1-1.2-1.7-1.8C1451.2,1446.3,1444.4,1403.7,1466.2,1376.4z" clip-rule="evenodd"/><path fill="#fff" fill-rule="evenodd" d="M1584.6,1143.9c0.6-1.5,2.3-2.3,3.9-1.7c1.5,0.6,2.3,2.3,1.7,3.9c-3,7.7-5.4,15.8-7.6,24.2    c0.9-0.8,1.7-1.5,2.7-2.3c4.1-3.3,8.7-6.1,13.8-8.5c1.5-0.7,3.3-0.1,4,1.4c0.7,1.5,0.1,3.3-1.4,4c-4.7,2.2-8.9,4.8-12.6,7.8    c-3.5,2.8-6.5,5.9-9.1,9.4c-3.8,18.2-6.3,37.8-8.6,58.5c3.5-5.4,7.1-10.2,11.1-14.5c6.8-7.4,14.4-13.2,22.6-17.3    c1.5-0.7,3.3-0.1,4,1.3c0.7,1.5,0.1,3.3-1.3,4c-7.6,3.8-14.6,9.1-20.9,16c-6.3,6.9-12,15.2-17,25.2l-0.6,5.6    c-1.3,12.3-2.6,24.9-4.1,37.8c0,0.1,0,0.2,0,0.4c-1.6,13.5-3.5,27.2-5.9,41.2c6.5-10,13.4-18.8,20.8-26.4    c10.9-11.2,22.8-20,35.8-26.2c1.5-0.7,3.3-0.1,4,1.4c0.7,1.5,0.1,3.3-1.4,4c-12.4,6-23.8,14.3-34.2,25    c-10.4,10.7-19.8,23.7-28.2,39.1c-3.7,18.5-8.4,37.4-14.6,56.5l0,0l0,0.1l0,0c-3,9.4-6.5,18.8-10.3,28.2    c9-7.8,18.6-14.5,28.8-20.1c14.1-7.9,29.3-13.7,45.6-17.4c1.6-0.4,3.2,0.6,3.6,2.2c0.4,1.6-0.6,3.2-2.2,3.6    c-15.7,3.6-30.4,9.3-44,16.8c-13.5,7.5-26,17-37.4,28.3c-2.8,6.3-5.9,12.6-9.1,18.9l-6.6-0.3c10.9-20.7,19.3-41.4,26-61.9    c1.1-14.6-0.6-29.1-5.2-43.7c-4.6-14.8-12.2-29.5-22.7-44.3c-0.9-1.3-0.6-3.2,0.7-4.2c1.3-1,3.2-0.6,4.2,0.7    c10.9,15.3,18.7,30.6,23.5,46c2.7,8.7,4.5,17.4,5.3,26.2c9-32.3,13.9-64,17.6-94.1c-3.5-12.8-7.4-23.6-11.7-32.5    c-4.3-8.8-9-15.6-14-20.4c-1.2-1.1-1.3-3-0.1-4.2c1.1-1.2,3-1.3,4.2-0.1c5.6,5.3,10.7,12.7,15.3,22.1c2.9,5.9,5.6,12.6,8.1,20.1    c0.9-8,1.7-15.8,2.5-23.6l0.6-6c0-0.1,0-0.2,0-0.3C1568.2,1212.9,1572.5,1175.6,1584.6,1143.9z" clip-rule="evenodd"/><path fill="#c5def8" fill-rule="evenodd" d="M1566.2,1392.4c10.4-5.6,22.9-8.5,30.1-17.8c8.6-11,6.8-27,14-38.9c9-15,28.8-18.8,43-29    c13.9-10,12-16.2,19.4-31.6c11.2-23.2,43.4-44.9,65.9-25.9c22.8,19.4,8.1,42-4.3,58.4c-8.9,11.7-7.5,14.5-9.9,29    c-2.9,17.5,3.1,38.2-8.7,51.4c-7.3,8.2-19.4,10.7-26.9,18.7c-8.4,9.1-8.7,22.8-11.8,34.9c-4.1,16.2-11.2,29.3-22.5,39.7    c-29.8-2-64.4-3.9-103-5.6c-3.4-4.6-6.1-9.7-8.1-15.2C1535,1436.6,1542.9,1405,1566.2,1392.4z" clip-rule="evenodd"/><path fill="#fff" fill-rule="evenodd" d="M1717.5,1265.5c0.9-0.9,2.3-0.9,3.2-0.1c0.9,0.9,0.9,2.3,0.1,3.2c-4.3,4.5-8.5,9.4-12.4,14.6    c0.8-0.3,1.7-0.5,2.5-0.8c3.8-1.1,7.8-1.7,12.2-1.9c1.2,0,2.3,0.9,2.3,2.2c0,1.2-0.9,2.3-2.2,2.3c-4,0.2-7.7,0.7-11.1,1.7    c-3.3,0.9-6.3,2.2-9.1,3.9c-8.1,11.6-15.6,24.5-23.3,38.2c4-2.7,8-5,12-6.8c6.9-3.1,13.9-4.9,20.9-5.3c1.2-0.1,2.3,0.9,2.4,2.1    c0.1,1.2-0.9,2.3-2.1,2.4c-6.4,0.4-12.8,2-19.3,4.9c-6.4,2.9-12.9,7.1-19.3,12.5l-2.1,3.7c-4.5,8.2-9.2,16.6-14.1,25.1    c0,0.1-0.1,0.2-0.1,0.2c-5.1,8.9-10.5,17.9-16.3,27c7.4-5,14.9-9.1,22.3-12.2c10.9-4.6,21.8-7.1,32.7-7.6c1.2-0.1,2.3,0.9,2.4,2.2    c0.1,1.2-0.9,2.3-2.2,2.4c-10.4,0.5-20.8,2.9-31.2,7.3c-10.4,4.4-20.8,10.7-31.2,18.9c-8.1,11.8-16.9,23.6-26.9,35.1l0,0l0,0l0,0    c-4.9,5.6-10.1,11.2-15.6,16.6c8.6-2.7,17.3-4.6,26-5.5c12.2-1.3,24.5-0.8,36.9,1.3c1.2,0.2,2.1,1.4,1.8,2.6    c-0.2,1.2-1.4,2.1-2.6,1.8c-12-2.1-23.9-2.6-35.6-1.3c-11.6,1.2-23.1,4.1-34.5,8.7c-4.3,3.9-8.7,7.8-13.4,11.6l-6.8-0.3    c15.3-12.1,28.5-25,40.2-38.4c5.1-9.8,8.2-20.5,9.3-32c1.1-11.7,0.2-24.2-2.7-37.6c-0.3-1.2,0.5-2.4,1.7-2.7    c1.2-0.3,2.4,0.5,2.7,1.7c3,13.9,3.9,26.9,2.8,39c-0.7,6.9-2,13.5-4.1,19.8c15.8-19.9,28.7-40.4,40.1-60.4    c1.3-9.9,1.8-18.6,1.4-26.1c-0.4-7.4-1.6-13.5-3.7-18.3c-0.5-1.1,0-2.5,1.2-3c1.1-0.5,2.5,0,3,1.2c2.3,5.3,3.7,12,4.1,19.9    c0.3,4.9,0.1,10.4-0.3,16.4c3-5.3,5.9-10.5,8.7-15.7l2.2-4c0-0.1,0.1-0.1,0.1-0.2C1685.7,1308.8,1699.7,1284,1717.5,1265.5z" clip-rule="evenodd"/><path fill="#fff" fill-rule="evenodd" d="M941.5,647.4c-2.8,38.3-8.4,43.6-45,46.6c36.5,3,42.2,8.2,45,46.6c2.8-38.3,8.4-43.6,45-46.6    C949.9,691,944.3,685.8,941.5,647.4L941.5,647.4z M1090,748.5c-1.5,20.5-4.5,23.3-24,24.9c19.5,1.6,22.5,4.4,24,24.9    c1.5-20.5,4.5-23.3,24-24.9C1094.5,771.8,1091.5,769,1090,748.5L1090,748.5z M1025,591c-1.5,20.7-4.6,23.6-24.3,25.2    c19.8,1.6,22.8,4.5,24.3,25.2c1.5-20.7,4.6-23.6,24.3-25.2C1029.5,614.6,1026.5,611.8,1025,591z" clip-rule="evenodd"/><path fill="#fff" fill-rule="evenodd" d="M887.6,1275.7c2.3,31,6.8,35.3,36.4,37.7c-29.6,2.4-34.2,6.7-36.4,37.7c-2.3-31-6.8-35.3-36.4-37.7    C880.8,1311.1,885.4,1306.8,887.6,1275.7L887.6,1275.7z M767.3,1357.6c1.2,16.6,3.7,18.9,19.5,20.1c-15.8,1.3-18.2,3.6-19.5,20.1    c-1.2-16.6-3.7-18.9-19.5-20.1C763.6,1376.5,766.1,1374.2,767.3,1357.6L767.3,1357.6z M820,1230c1.2,16.8,3.7,19.1,19.7,20.4    c-16,1.3-18.5,3.6-19.7,20.4c-1.2-16.8-3.7-19.1-19.7-20.4C816.3,1249.1,818.8,1246.8,820,1230z" clip-rule="evenodd"/><path fill="#fff" fill-rule="evenodd" d="M1360.5,1199.2c-1.7,23.8-5.2,27-27.9,28.9c22.7,1.8,26.2,5.1,27.9,28.9c1.7-23.8,5.2-27,27.9-28.9    C1365.7,1226.2,1362.2,1223,1360.5,1199.2L1360.5,1199.2z M1452.6,1261.9c-0.9,12.7-2.8,14.4-14.9,15.4c12.1,1,14,2.7,14.9,15.4    c0.9-12.7,2.8-14.4,14.9-15.4C1455.4,1276.3,1453.5,1274.6,1452.6,1261.9L1452.6,1261.9z M1412.3,1164.2    c-0.9,12.9-2.8,14.6-15.1,15.6c12.3,1,14.2,2.8,15.1,15.6c0.9-12.9,2.8-14.6,15.1-15.6C1415.1,1178.8,1413.2,1177.1,1412.3,1164.2    z" clip-rule="evenodd"/><path fill="#61a0e0" fill-rule="evenodd" d="M1313,1588.5c-154-15-299.7-32.9-460.4-47.4c-164.1-14.9-331.6-29.3-502-43.8c-20.8-1.7-75.6-1.7-47.6-46.7    c-0.9-0.6,31.8,4.4,31.3,3.8c-1.3-1.4-1.7-3-1-4.7c0.5-1.7,2.1-3.4,4.8-5.2c53.5-34.6,108.2-69.7,164.8-104.1    c57.8-35.1,117.5-69.7,178.4-104.6c1.7-1,4.2-1.9,7.2-2.7c2.9-0.8,6.1-1.4,9.9-1.9c3.5-0.4,7.3-0.8,11.4-0.9l0.3,0    c-1.1-3.4-1.4-7.2-0.8-11l77.1-507.1c2.3-15,17.5-26.4,34-25.4l797.5,48.8c30.1,9.2,44.1,14.2,39.2,46.5l-67.7,445.4l-2.8,18.5    c-2.2,15-8.9,27.5-13,32.7c-8.2,10.3-19.4,13-23.2,15.6c-8.2,5.8-23.9,2.2-7.7,6c0.7,0.3,2.6,1,4.2,3.7c2.3,4,4.7,41,3.9,42.4    c-4.2,6.5-2.1,3.4-6,9.4c-1.2,1.9-2.4,3.8-3.6,5.7c-12.4,19.5-24,37.9-38.7,61.6c-24.3,39.1-49.3,78.2-74.8,117.3    c-1,1.3-11,20.5-18.4,33.5C1396.1,1597.1,1337.2,1590.8,1313,1588.5L1313,1588.5z M1117.7,1397.6l83.6,8.5l-0.2-0.2    c-0.8-0.5-1.7-0.9-2.9-1.2c-1.2-0.3-2.6-0.6-4.1-0.7l0,0l0,0l0,0c-0.1,0-0.1,0-0.1,0L1117.7,1397.6z" clip-rule="evenodd"/><path fill="#a4d0fc" fill-rule="evenodd" d="M1529.7,1299.7l-825-50.5c-16.5-1-28-14-25.7-29L756.1,713c2.3-15,17.5-26.4,34-25.4l825,50.5    c16.5,1,28,14,25.7,29l-77.1,507.1C1561.4,1289.3,1546.2,1300.7,1529.7,1299.7z" clip-rule="evenodd"/><path fill="#eff9fc" fill-rule="evenodd" d="M1506.3,1268.2l-769.2-47.1c-15-0.9-25.5-12.8-23.5-26.5l68.8-452.4c2.1-13.7,16-24.1,31-23.2l769.2,47.1    c15,0.9,25.5,12.8,23.5,26.5l-68.8,452.4C1535.2,1258.8,1521.4,1269.2,1506.3,1268.2z" clip-rule="evenodd"/><path fill="#d6e6f3" fill-rule="evenodd" d="M1605.8,794.5l-2,12.8l-824.7-50.5l2-12.8c2.3-15,15.5-26.5,35-25.3l763,46.7    C1599.7,766.7,1608.6,776.7,1605.8,794.5z" clip-rule="evenodd"/><path fill="#fff" fill-rule="evenodd" d="M1509.8,781.4c-0.6,4.2-4.9,7.4-9.5,7.1c-4.6-0.3-7.8-3.9-7.2-8.1c0.6-4.2,4.9-7.3,9.5-7.1    C1507.2,773.6,1510.4,777.2,1509.8,781.4L1509.8,781.4z M1569.5,785.1c-0.6,4.2-4.9,7.4-9.5,7.1c-4.6-0.3-7.8-3.9-7.2-8.1    c0.6-4.2,4.9-7.3,9.5-7.1C1566.9,777.3,1570.2,780.9,1569.5,785.1L1569.5,785.1z M1539.7,783.2c-0.6,4.2-4.9,7.3-9.5,7.1    c-4.6-0.3-7.8-3.9-7.2-8.1c0.6-4.2,4.9-7.3,9.5-7.1C1537.1,775.4,1540.3,779.1,1539.7,783.2z" clip-rule="evenodd"/><path fill="#fefefe" fill-rule="evenodd" d="M751.1,1365.1c81.6,8,162.3,15.9,242.3,23.9c79.3,7.9,158,16,236.1,24c-22.9,19.2-45.6,38.4-68,57.5    c-22.2,19.1-44.3,38.3-66.4,57.4c-79.6-7.6-160.4-15.4-241.5-22.9c-82.1-7.6-165.1-15.2-248.9-22.7c23.5-19.5,47.4-39.1,71.6-58.6    C700.7,1404.2,725.8,1384.7,751.1,1365.1z" clip-rule="evenodd"/><path fill="#61a0e0" fill-rule="evenodd" d="M1294.5,1586.7c-154.1-15-311.9-30.3-473.3-44.6c-164.8-14.6-333.7-27.9-505.7-41.5c-25-2-29.2-25.6-9.1-52.8    l0,0c192.2,14.3,380.6,28.1,564.7,43.8c179.7,15.3,355.2,31.9,526.4,48.1C1362.2,1567.8,1316.4,1588.8,1294.5,1586.7z" clip-rule="evenodd"/><path fill="#a4d0fc" fill-rule="evenodd" d="M1526.5,1296.4c-134.9-10.9-271.3-21.9-409.8-32.7c-140.1-10.9-282.1-21.6-425.7-32.3    c-3.8-0.3-7.7-0.4-11.5-0.2c-4.1,0.2-7.8,0.5-11.4,0.9c-3.8,0.5-7.1,1.1-9.9,1.9c-3,0.8-5.5,1.7-7.2,2.7    c-60.9,34.9-120.6,69.5-178.4,104.6c-56.7,34.4-111.4,69.5-164.8,104.1c-2.7,1.8-4.3,3.5-4.8,5.2c-0.7,1.7-0.3,3.3,1,4.7    c1.3,1.4,3.5,2.7,6.7,3.7c3.1,1,7.1,1.7,11.8,2.1c0,0,0,0,0.1,0l0,0l0,0l0,0c181,15.1,358.9,30,533.3,45.4    c170.9,15.1,338.1,30.8,501.7,46.4c4.3,0.4,8.5,0.4,12.6-0.1c4.2-0.4,8.2-1.2,11.8-2.2c3.5-1.1,6.9-2.4,9.4-4    c2.9-1.6,4.8-3.4,6.3-5.4c25.5-39.1,50.5-78.2,74.8-117.3c24.3-39.1,49.3-78.2,74.1-117.3c0.9-1.1,0.8-2.2,0.1-3.3    c-0.8-1.1-2-2.1-3.8-3c-1.8-0.9-4.2-1.7-6.9-2.4C1533,1297.2,1530,1296.7,1526.5,1296.4L1526.5,1296.4L1526.5,1296.4z     M655.8,1481.2c-1.7-0.1-3.3-0.4-4.6-0.8c-1.2-0.4-2.1-0.9-2.6-1.5c-0.7-0.6-0.9-1.2-0.9-1.9c0.1-0.7,0.5-1.4,1.4-2.1    c39.5-32.7,79.7-65.3,121.2-98c0.7-0.5,1.7-1.1,2.9-1.5c1.3-0.4,2.6-0.8,4.2-1.1c1.6-0.3,3.1-0.5,5-0.6c1.6-0.1,3.3-0.1,5,0    c63.7,5.2,127.1,10.4,189.9,15.6c62.5,5.2,124.7,10.4,186.5,15.6c0,0,0,0,0.1,0l0,0l0,0l0,0c1.4,0.1,2.9,0.4,4,0.7    c1.2,0.3,2.1,0.7,2.9,1.2c0.6,0.5,1,1,1.2,1.5c0,0.6,0,1.1-0.7,1.7c-15,17.2-30.1,34.3-44.7,51.5c-14.6,17.1-29.3,34.3-43.8,51.4    c-0.5,0.7-1.6,1.4-2.7,2c-1.2,0.6-2.5,1.1-4.1,1.5c-1.6,0.4-3.3,0.7-5,0.8c-1.7,0.1-3.5,0.1-5.1,0c-67.1-6-134.6-12.2-202.7-18.1    C794.6,1493.2,725.5,1487.2,655.8,1481.2z" clip-rule="evenodd"/><path fill="#fefefe" fill-rule="evenodd" d="M1136,1409.4L1136,1409.4L1136,1409.4L1136,1409.4c-0.1,0-0.1,0-0.1,0c-54.9-4.6-110.1-9.3-165.3-13.9    c-55.5-4.6-111.6-9.2-168-13.8c-1.3-0.1-2.9-0.1-4.3-0.1c-1.4,0.1-2.9,0.3-4.2,0.5c-1.4,0.3-2.7,0.6-3.8,1c-1,0.4-2,0.8-2.6,1.3    c-36.9,29-72.9,58-108.2,87c-0.7,0.6-1.2,1.2-1.2,1.8c-0.3,0.6,0.1,1.2,0.7,1.7c0.5,0.5,1.3,1,2.4,1.3c1.2,0.3,2.5,0.6,4.1,0.7    c61.8,5.3,123.3,10.6,184.3,16c60.5,5.3,120.8,10.7,180.5,16c1.4,0.1,3.1,0.1,4.6,0c1.6-0.1,2.9-0.4,4.3-0.7    c1.3-0.4,2.6-0.8,3.7-1.4c1.2-0.5,1.8-1.1,2.5-1.8c25.5-30.4,51.2-60.7,77.4-91.2c0.4-0.5,0.7-1,0.5-1.5c-0.1-0.5-0.4-1-1-1.4    c-0.5-0.4-1.4-0.8-2.5-1.1C1138.7,1409.7,1137.4,1409.5,1136,1409.4L1136,1409.4z" clip-rule="evenodd"/><path fill="#fff" fill-rule="evenodd" d="M1405.8,1300.8c-15-1.2-30.1-2.5-45.2-3.7c-0.5,0-1,0-1.7,0c-0.4,0-0.8,0.1-1.4,0.2     c-0.4,0.1-0.8,0.2-1.2,0.3c-0.3,0.1-0.5,0.3-0.7,0.5c-2,2.2-3.8,4.5-5.6,6.7c-0.1,0.2-0.1,0.3-0.1,0.5c0.1,0.2,0.3,0.3,0.5,0.5     c0.3,0.1,0.5,0.3,1,0.4c0.4,0.1,0.9,0.2,1.6,0.2c15.2,1.3,30.3,2.5,45.5,3.8c0.7,0,1.2,0,1.7,0c0.7-0.1,0.9-0.1,1.4-0.2     c0.5-0.1,0.9-0.2,1.3-0.3c0.3-0.2,0.5-0.3,0.7-0.5c1.7-2.3,3.5-4.6,5.4-6.8c0-0.2,0-0.3,0-0.5c-0.1-0.1-0.4-0.3-0.5-0.4     c-0.3-0.1-0.6-0.3-1-0.4C1407,1300.9,1406.5,1300.9,1405.8,1300.8L1405.8,1300.8L1405.8,1300.8z M805.6,1254.2     c-16.9-1.4-33.6-2.7-50.3-4.1c-1.7,0.2-3.4,0.3-5,0.4c-3.8,2.2-7.5,4.5-11.2,6.7c0.8,0.5,1.6,1,2.5,1.5     c16.1,1.2,32.2,2.5,48.4,3.7c2-0.3,3.9-0.6,6-0.9C805.1,1255.4,806.7,1254.9,805.6,1254.2L805.6,1254.2z M1429.9,1407     c-15.3-1.3-30.7-2.7-46-4c-0.4-0.1-0.9,0-1.3,0c-0.5,0.1-0.8,0.1-1.3,0.2c-0.4,0.1-0.8,0.2-1,0.3c-0.1,0.2-0.5,0.3-0.7,0.5     c-2,2.6-3.7,5.2-5.5,7.8c-0.1,0.2-0.1,0.4-0.1,0.5c0,0.2,0.3,0.3,0.5,0.5c0.1,0.1,0.5,0.3,0.8,0.4c0.4,0.1,0.9,0.2,1.3,0.2     c15.4,1.4,31.1,2.7,46.5,4.1c0.4,0,0.9,0,1.3,0c0.5,0,0.9-0.1,1.3-0.2c0.4-0.1,0.7-0.2,1-0.3c0.3-0.2,0.4-0.3,0.7-0.5     c1.7-2.6,3.4-5.2,5.1-7.8c0.1-0.2,0.1-0.3,0.1-0.5c-0.1-0.1-0.1-0.3-0.4-0.5c-0.3-0.1-0.5-0.2-1-0.3     C1430.9,1407.1,1430.4,1407,1429.9,1407L1429.9,1407L1429.9,1407z M1378.1,1391.7L1378.1,1391.7c0.4,0.1,0.9,0.1,1.2,0.2     c0.4,0.1,0.7,0.2,0.9,0.3c0.1,0.1,0.3,0.3,0.4,0.5c0,0.2,0,0.3-0.1,0.5c-1.8,2.5-3.7,5.1-5.4,7.6c0,0.2-0.4,0.4-0.7,0.5     c-0.3,0.2-0.7,0.2-1,0.3c-0.4,0.1-0.8,0.2-1.2,0.2c-0.4,0.1-0.9,0-1.4,0c0.5,0.1,0.9,0.1,1.3,0.2c0.3,0.1,0.5,0.3,0.8,0.4     c0.3,0.1,0.4,0.3,0.3,0.5c0.3,0.1,0.3,0.3,0,0.5c-1.8,2.6-3.8,5.2-5.5,7.8c-0.1,0.2-0.3,0.3-0.7,0.5c-0.3,0.1-0.7,0.2-1,0.3     c-0.4,0.1-0.9,0.2-1.3,0.2c-0.5,0-1,0-1.4,0c-15.6-1.4-31.1-2.7-46.7-4.1c-0.5,0-0.9-0.1-1.4-0.2c-0.3-0.1-0.5-0.2-0.8-0.4     c-0.1-0.1-0.4-0.3-0.4-0.5c0-0.2,0-0.3,0-0.5c2-2.6,3.9-5.1,6-7.7c0.1-0.2,0.4-0.3,0.7-0.5c0.3-0.2,0.7-0.2,1-0.3     c0.4-0.1,0.8-0.2,1.3-0.2c0.5,0,0.9,0,1.3,0c-0.4,0-0.8-0.1-1-0.2c-0.5-0.1-0.8-0.2-1-0.4c-0.1-0.1-0.3-0.3-0.4-0.4     c0-0.2-0.1-0.3,0.1-0.5c2-2.5,3.9-5,5.8-7.5c0.1-0.2,0.4-0.4,0.7-0.5c0.4-0.1,0.7-0.2,1-0.3c0.5-0.1,0.9-0.1,1.3-0.2     c0.4,0,0.9,0,1.4,0C1347.4,1389.1,1362.7,1390.4,1378.1,1391.7L1378.1,1391.7z M1324.4,1397.8c15.4,1.4,31,2.7,46.4,4l0,0l0,0     L1324.4,1397.8L1324.4,1397.8z M1370.8,1401.8l-46.4-4C1339.8,1399.2,1355.4,1400.5,1370.8,1401.8z M1370.8,1401.8L1370.8,1401.8     L1370.8,1401.8L1370.8,1401.8L1370.8,1401.8L1370.8,1401.8L1370.8,1401.8L1370.8,1401.8L1370.8,1401.8L1370.8,1401.8     L1370.8,1401.8z M1310.4,1396.6c-15.6-1.3-31.1-2.7-46.7-4c-0.5-0.1-1,0-1.4,0c-0.5,0.1-0.9,0.1-1.4,0.2c-0.3,0.1-0.7,0.2-1,0.3     c-0.3,0.1-0.4,0.3-0.7,0.5c-2.1,2.6-4.2,5.1-6.3,7.7c-0.1,0.2-0.3,0.4-0.1,0.5c0,0.2,0.1,0.3,0.4,0.5c0.1,0.1,0.4,0.3,0.9,0.4     c0.3,0.1,0.8,0.2,1.2,0.2c15.7,1.4,31.4,2.7,47.2,4.1c0.5,0,0.9,0,1.4,0c0.5,0,0.8-0.1,1.2-0.2c0.5-0.1,0.9-0.2,1.2-0.3     c0.3-0.2,0.5-0.3,0.4-0.5c2.1-2.6,4.2-5.1,6.1-7.7c0.1-0.2,0.3-0.4,0.3-0.5c-0.1-0.2-0.3-0.3-0.4-0.5c-0.4-0.1-0.7-0.2-0.9-0.3     C1311.3,1396.7,1310.9,1396.7,1310.4,1396.6L1310.4,1396.6L1310.4,1396.6z M1496.9,1308.3c-7.1-0.6-14.2-1.1-21.3-1.8     c-0.5,0-0.9,0-1.3,0c-0.5,0-0.8,0.1-1.2,0.1c-0.4,0.1-0.8,0.2-0.9,0.3c-0.1,0.1-0.4,0.2-0.4,0.4c-1.8,2.5-3.8,4.9-5.4,7.4     c-0.1,0.1-0.1,0.3-0.1,0.4c0.3,0.1,0.3,0.3,0.7,0.4c0.1,0.1,0.5,0.2,0.8,0.3c0.4,0.1,0.7,0.1,1.2,0.2c7.1,0.6,14.2,1.2,21.4,1.8     c0.5,0.1,0.9,0,1.3,0c0.4,0,0.8-0.1,1-0.1c0.4-0.1,0.9-0.2,1-0.3c0.3-0.1,0.4-0.2,0.4-0.4c1.8-2.5,3.5-4.9,5.2-7.4     c0.1-0.1,0-0.3,0-0.4c-0.1-0.1-0.3-0.3-0.5-0.4c-0.1-0.1-0.5-0.2-0.8-0.3C1497.7,1308.4,1497.4,1308.3,1496.9,1308.3     L1496.9,1308.3L1496.9,1308.3z M865,1258.3L865,1258.3c0.7,0,1.2,0.1,1.4,0.2c0.4,0.1,0.8,0.2,1,0.3c0.1,0.1,0.3,0.3,0.4,0.4     c-0.1,0.2-0.3,0.3-0.4,0.5c-3,2.1-6.1,4.3-9.1,6.4c-0.3,0.2-0.7,0.3-0.9,0.4c-0.4,0.1-1,0.2-1.6,0.3c-0.5,0.1-1,0.1-1.7,0.2     c-0.4,0-1,0-1.7,0c-16.2-1.2-32-2.4-48.1-3.7c-0.7,0-1.2-0.1-1.4-0.2c-0.5-0.1-0.8-0.2-1-0.3c-0.1-0.1-0.3-0.3-0.3-0.4     c-0.1-0.1,0.1-0.3,0.4-0.5c3.1-2.1,6.3-4.2,9.5-6.3c0.3-0.2,0.5-0.3,0.9-0.4c0.4-0.1,0.9-0.2,1.4-0.3c0.7-0.1,1.2-0.1,1.8-0.1     c0.5-0.1,1.2,0,1.6,0C833.2,1255.9,849.1,1257.1,865,1258.3L865,1258.3z M1464.4,1305.6L1464.4,1305.6c0.5,0,1,0.1,1.4,0.2     c0.4,0.1,0.7,0.2,1,0.3c0.3,0.1,0.4,0.3,0.5,0.5c0.1,0.1-0.1,0.3,0,0.5c-1.7,2.3-3.3,4.6-5.1,6.9c0,0.2-0.1,0.3-0.5,0.5     c-0.3,0.2-0.7,0.2-1.2,0.3c-0.4,0.1-1,0.1-1.4,0.2c-0.5,0-1,0-1.6-0.1c-15.2-1.2-30.3-2.5-45.5-3.7c-0.5-0.1-0.9-0.1-1.4-0.2     c-0.5-0.1-0.8-0.2-1-0.4c-0.3-0.1-0.4-0.3-0.5-0.5c-0.1-0.1-0.1-0.3,0.1-0.5c1.7-2.3,3.4-4.6,5.1-6.8c0.3-0.2,0.5-0.3,0.8-0.4     c0.4-0.2,0.8-0.2,1.2-0.3c0.4-0.1,0.8-0.1,1.3-0.2c0.5,0,1,0,1.7,0C1434.4,1303.2,1449.3,1304.4,1464.4,1305.6L1464.4,1305.6z      M722.5,1258.8c-14.8-1.1-29.5-2.2-44.2-3.3c-0.7,0-1.2,0-1.8,0c-0.7,0-1.2,0.1-1.8,0.2c-0.7,0.1-1.2,0.2-1.6,0.3     c-0.4,0.1-0.8,0.3-1,0.4c-6.9,4.1-13.7,8.2-20.4,12.2c-0.3,0.2-0.5,0.4-0.5,0.5c0,0.2,0,0.3,0.3,0.4c0.1,0.1,0.5,0.3,0.9,0.4     c0.5,0.1,1,0.2,1.6,0.2c14.9,1.1,29.9,2.2,45,3.4c0.7,0.1,1.2,0.1,1.8,0.1c0.7,0,1.3-0.1,1.8-0.2c0.5-0.1,1-0.2,1.6-0.3     c0.4-0.1,0.8-0.3,1-0.4c6.4-4.1,13.1-8.2,19.7-12.3c0.3-0.2,0.3-0.3,0.3-0.5c0-0.2,0-0.3-0.3-0.4c-0.3-0.1-0.5-0.2-1-0.3     C723.5,1258.9,723,1258.8,722.5,1258.8L722.5,1258.8z M1123.5,1371c-97.4-8-195.8-16-295-24c-0.5,0-1.2,0-1.8,0     c-0.7,0-1.2,0.1-1.7,0.2c-0.7,0.1-1.2,0.2-1.6,0.4c-0.4,0.2-0.9,0.4-1.2,0.6c-6.7,5.2-13.2,10.3-19.7,15.4     c-0.3,0.2-0.4,0.4-0.4,0.7c0,0.2,0.1,0.4,0.4,0.6c0.1,0.2,0.4,0.3,0.9,0.5c0.5,0.1,1,0.2,1.7,0.3c50.6,4.1,101,8.2,151.2,12.3     c49.8,4.1,99.5,8.2,148.9,12.4c0.7,0,1.2,0,1.8,0c0.7-0.1,1-0.1,1.8-0.2c0.4-0.1,0.9-0.3,1.3-0.4c0.4-0.2,0.8-0.4,0.9-0.6     c5.1-5.3,10.2-10.7,15.4-16c0.3-0.2,0.4-0.4,0.3-0.7c0-0.2-0.3-0.4-0.5-0.5c-0.3-0.2-0.5-0.3-1-0.5     C1124.8,1371.1,1124.2,1371,1123.5,1371L1123.5,1371L1123.5,1371z M1258.4,1382.3L1258.4,1382.3c0.5,0,1.2,0.1,1.6,0.3     c0.5,0.1,0.9,0.3,1.2,0.5c0.3,0.1,0.4,0.4,0.5,0.6c0,0.2,0,0.4-0.3,0.6c-4.6,5.5-9,10.9-13.6,16.3c-0.1,0.2-0.3,0.4-0.8,0.6     c-0.4,0.2-0.8,0.3-1.3,0.4c-0.5,0.1-1,0.2-1.7,0.2c-0.5,0.1-1.2,0-1.7,0c-15.3-1.3-30.6-2.6-45.7-3.9c-0.7-0.1-1.2-0.2-1.6-0.3     c-0.4-0.1-0.6-0.3-1-0.5c-0.3-0.2-0.4-0.4-0.4-0.6c-0.1-0.2-0.1-0.4,0-0.6c4.7-5.4,9.4-10.8,14.2-16.2c0.3-0.2,0.7-0.4,1-0.6     c0.3-0.2,0.9-0.3,1.2-0.4c0.4-0.1,1-0.2,1.8-0.2c0.5,0,0.9,0,1.6,0C1228.5,1379.8,1243.4,1381,1258.4,1382.3L1258.4,1382.3z      M1197.5,1377.2L1197.5,1377.2c0.5,0,1.2,0.1,1.6,0.3c0.5,0.1,0.7,0.3,1,0.4c0.4,0.2,0.5,0.4,0.5,0.6c0,0.2-0.1,0.4-0.3,0.6     c-4.7,5.4-9.5,10.8-14.2,16.2c-0.3,0.2-0.7,0.4-0.8,0.6c-0.7,0.2-1,0.3-1.6,0.5c-0.5,0.1-1,0.2-1.7,0.2c-0.7,0.1-1.2,0-1.7,0     c-19.9-1.7-39.9-3.4-59.7-5.1c-0.7,0-1.2-0.1-1.4-0.3c-0.5-0.1-0.9-0.3-1.3-0.4c-0.1-0.2-0.3-0.4-0.4-0.6c0-0.2,0.1-0.4,0.1-0.6     c5.1-5.3,10.3-10.7,15.4-16.1c0.1-0.2,0.5-0.4,0.9-0.6c0.4-0.2,0.9-0.3,1.3-0.4c0.5-0.1,1.2-0.1,1.7-0.2c0.7,0,1.3,0,1.8,0     C1158.3,1373.9,1177.9,1375.6,1197.5,1377.2L1197.5,1377.2z M813.3,1345.7L813.3,1345.7c0.7,0.1,1.2,0.2,1.6,0.3     c0.5,0.1,0.9,0.2,1,0.4c0.3,0.1,0.3,0.3,0.4,0.5c0,0.2-0.3,0.4-0.4,0.6c-6.7,5.1-13.3,10.3-20,15.4c-0.3,0.2-0.7,0.4-1,0.6     c-0.5,0.2-1,0.3-1.6,0.4c-0.7,0.1-1.3,0.2-1.8,0.2c-0.7,0.1-1.4,0-2,0c-20.8-1.7-41.4-3.3-62.1-5c-0.7-0.1-1.2-0.1-1.7-0.3     c-0.4-0.1-0.8-0.3-1-0.4c-0.1-0.2-0.3-0.4-0.3-0.6c0.1-0.2,0.3-0.4,0.5-0.6c6.8-5.1,13.9-10.2,20.9-15.3c0.3-0.2,0.7-0.4,1.2-0.5     c0.4-0.2,0.9-0.3,1.6-0.4c0.5-0.1,1.2-0.2,1.8-0.2c0.5,0,1.3,0,2,0C772.7,1342.5,793.1,1344.1,813.3,1345.7L813.3,1345.7z      M736.7,1339.7c-15.7-1.2-31.4-2.5-47.1-3.7c-0.7-0.1-1.2-0.1-2,0c-0.7,0-1.3,0.1-2,0.2c-0.4,0.1-1,0.3-1.4,0.4     c-0.5,0.2-1,0.3-1.3,0.5c-7.3,5.1-14.6,10.2-21.8,15.2c-0.3,0.2-0.4,0.4-0.5,0.6c0,0.2,0.1,0.4,0.4,0.6c0.1,0.2,0.5,0.3,1,0.4     c0.3,0.1,0.9,0.2,1.6,0.3c15.9,1.3,31.9,2.6,47.8,3.8c0.7,0.1,1.3,0,2,0c0.7-0.1,1.3-0.1,2-0.2c0.7-0.1,1.2-0.2,1.6-0.4     c0.4-0.2,0.9-0.4,1.2-0.6c6.9-5.1,14-10.2,21-15.3c0.4-0.2,0.5-0.4,0.4-0.6c0-0.2,0-0.4-0.3-0.5c-0.3-0.2-0.5-0.3-1-0.4     C737.9,1339.8,737.4,1339.7,736.7,1339.7L736.7,1339.7L736.7,1339.7z M674,1334.7L674,1334.7c0.5,0.1,1,0.2,1.4,0.3     c0.7,0.1,0.9,0.2,1.2,0.4c0.1,0.2,0.3,0.4,0.3,0.6c0,0.2-0.3,0.4-0.4,0.6c-7.4,5.1-14.9,10.2-22.1,15.2c-0.4,0.2-0.8,0.4-1.3,0.6     c-0.4,0.2-1,0.3-1.6,0.4c-0.5,0.1-1.3,0.2-2,0.2c-0.5,0-1.3,0-2,0c-16.1-1.2-32.2-2.5-48.2-3.8c-0.7-0.1-1.2-0.2-1.6-0.3     c-0.5-0.1-0.9-0.2-1-0.4c-0.3-0.2-0.4-0.4-0.1-0.6c0-0.2,0.1-0.4,0.4-0.6c7.6-5,15.3-10.1,22.9-15.1c0.3-0.2,0.7-0.4,1.3-0.5     c0.4-0.2,0.9-0.3,1.6-0.4c0.5-0.1,1.3-0.2,2-0.2c0.7,0,1.2,0,1.8,0.1C642.4,1332.3,658.2,1333.5,674,1334.7L674,1334.7z      M610.6,1329.8c-15.8-1.2-31.8-2.4-47.7-3.6c-0.7-0.1-1.2-0.1-1.8-0.1c-0.8,0.1-1.4,0.1-2.1,0.2c-0.7,0.1-1.2,0.2-1.7,0.4     c-0.4,0.2-0.9,0.3-1.3,0.5c-8,5-15.9,10-23.8,15c-0.3,0.2-0.5,0.4-0.5,0.6c0,0.2,0.1,0.4,0.3,0.6c0.3,0.1,0.5,0.3,1,0.4     c0.4,0.1,0.9,0.2,1.6,0.3c16.2,1.3,32.3,2.5,48.5,3.8c0.7,0,1.3,0,2,0c0.7-0.1,1.4-0.1,2-0.2c0.8-0.1,1.2-0.3,1.7-0.4     c0.5-0.2,0.9-0.4,1.2-0.6c7.7-5,15.4-10.1,23.1-15.1c0.3-0.2,0.4-0.4,0.5-0.6c0-0.2-0.1-0.4-0.4-0.6c-0.1-0.1-0.5-0.3-0.9-0.4     C611.6,1329.9,611.3,1329.8,610.6,1329.8L610.6,1329.8L610.6,1329.8z M715.8,1316.5c-40.8-3.1-81.4-6.2-122.3-9.4     c-0.7-0.1-1.3-0.1-2-0.1c-0.7,0-1.2,0.1-1.8,0.2c-0.7,0.1-1.2,0.2-1.7,0.4c-0.4,0.2-0.9,0.3-1.2,0.5c-7.7,4.8-15.4,9.5-23,14.2     c-0.3,0.2-0.4,0.4-0.4,0.6c-0.1,0.2-0.1,0.3,0.1,0.5c0.3,0.1,0.7,0.3,1,0.4c0.4,0.1,0.9,0.2,1.6,0.3c41.6,3.2,83.1,6.5,124.4,9.7     c0.7,0.1,1.3,0,2,0c0.7,0,1.3-0.1,2-0.2c0.5-0.1,1.2-0.2,1.6-0.3c0.4-0.2,0.9-0.4,1.2-0.6c6.9-4.8,13.9-9.6,20.8-14.4     c0.4-0.2,0.5-0.4,0.5-0.5c0-0.2,0-0.4-0.3-0.5c-0.3-0.2-0.5-0.3-0.9-0.4C716.9,1316.6,716.3,1316.5,715.8,1316.5L715.8,1316.5     L715.8,1316.5z M712.6,1295.8L712.6,1295.8c0.5,0.1,1,0.2,1.4,0.3c0.4,0.1,0.8,0.2,0.9,0.4c0.3,0.1,0.4,0.3,0.4,0.5     c0,0.2-0.3,0.3-0.4,0.5c-6.9,4.6-13.9,9.1-20.7,13.7c-0.3,0.2-0.7,0.4-1.2,0.5c-0.4,0.2-0.9,0.3-1.6,0.3     c-0.7,0.1-1.2,0.2-1.7,0.2c-0.7,0-1.3,0-2-0.1c-30.3-2.3-60.8-4.6-91.2-7c-0.7-0.1-1-0.2-1.6-0.3c-0.4-0.1-0.8-0.2-1-0.4     c0-0.2-0.1-0.3-0.1-0.5c0-0.2,0.1-0.4,0.4-0.5c7.3-4.5,14.6-9,22.1-13.5c0.4-0.2,0.8-0.4,1.2-0.5c0.5-0.1,1-0.3,1.6-0.4     c0.7-0.1,1.3-0.2,2-0.2c0.7,0,1.3,0,1.8,0.1C652.8,1291.3,682.7,1293.6,712.6,1295.8L712.6,1295.8z M779.9,1321.5L779.9,1321.5     c0.7,0.1,1.3,0.2,1.7,0.3c0.5,0.1,0.8,0.2,1,0.4c0.3,0.2,0.3,0.3,0.3,0.5c0.1,0.2-0.1,0.4-0.4,0.6c-6.7,4.8-13.3,9.7-19.9,14.5     c-0.4,0.2-0.8,0.4-1.2,0.6c-0.5,0.1-1,0.3-1.7,0.4c-0.5,0.1-1,0.2-1.7,0.2c-0.7,0.1-1.3,0-2,0c-15.6-1.2-31.4-2.5-47.1-3.7l0,0     c-0.1,0-0.1,0-0.1,0l0,0l0,0c-0.5-0.1-1-0.2-1.6-0.3c-0.4-0.1-0.7-0.3-0.9-0.4c-0.3-0.2-0.3-0.3-0.3-0.5c0-0.2,0.1-0.4,0.4-0.6     c6.9-4.8,13.9-9.6,20.8-14.5c0.4-0.2,0.8-0.3,1.2-0.5c0.5-0.2,1-0.3,1.4-0.3c0.7-0.1,1.4-0.2,2.1-0.2c0.4,0,1.2,0,1.6,0     C749.2,1319.1,764.6,1320.3,779.9,1321.5L779.9,1321.5z M841.4,1326.4c-15.3-1.2-30.6-2.4-46-3.6c-0.5-0.1-1.2,0-1.8,0     c-0.7,0-1.2,0.1-1.8,0.2c-0.5,0.1-1,0.2-1.6,0.4c-0.4,0.1-0.8,0.3-1,0.5c-6.7,4.9-13.3,9.7-19.9,14.6c-0.3,0.2-0.4,0.4-0.4,0.6     c0,0.2,0.1,0.4,0.3,0.6c0.3,0.1,0.7,0.3,1,0.4c0.4,0.1,0.9,0.2,1.6,0.3c15.7,1.2,31.2,2.5,46.8,3.7c0.7,0,1.4,0,2,0     c0.7,0,1.2-0.1,1.8-0.2c0.5-0.1,1-0.2,1.6-0.4c0.4-0.2,0.8-0.3,0.9-0.5c6.4-4.9,12.8-9.8,19.2-14.7c0.3-0.2,0.4-0.4,0.4-0.6     c-0.1-0.2-0.1-0.4-0.4-0.5c-0.1-0.1-0.5-0.3-1-0.4C842.6,1326.5,842.1,1326.4,841.4,1326.4L841.4,1326.4L841.4,1326.4z      M902.5,1331.2L902.5,1331.2c0.5,0.1,1.2,0.2,1.6,0.3c0.5,0.1,0.8,0.2,1,0.4c0.3,0.1,0.4,0.3,0.4,0.5c0,0.2-0.1,0.4-0.4,0.6     c-6,4.9-12,9.8-18,14.7c-0.4,0.2-0.7,0.4-1.2,0.6c-0.4,0.1-0.9,0.3-1.4,0.4c-0.5,0.1-1.2,0.2-1.7,0.2c-0.7,0-1.3,0-2-0.1     c-15.4-1.2-31-2.4-46.5-3.7c-0.5-0.1-1.2-0.2-1.6-0.3c-0.4-0.1-0.8-0.3-1-0.5c-0.3-0.1-0.4-0.3-0.4-0.5c0-0.2,0.3-0.4,0.4-0.6     c6.3-4.9,12.5-9.7,19.1-14.7c0.1-0.2,0.5-0.4,0.9-0.5c0.5-0.1,0.9-0.3,1.6-0.3c0.5-0.1,1.2-0.2,1.8-0.2c0.5,0,1.2,0,1.7,0.1     C872,1328.8,887.3,1330,902.5,1331.2L902.5,1331.2z M963.4,1336c0.5,0.1,1,0.2,1.4,0.3c0.5,0.1,0.9,0.3,1,0.4     c0.1,0.2,0.4,0.3,0.4,0.5c0,0.2,0,0.4-0.3,0.6c-5.9,5-11.8,9.9-17.4,14.9c-0.1,0.2-0.5,0.4-0.9,0.5c-0.5,0.2-0.9,0.3-1.6,0.4     c-0.5,0.1-1,0.1-1.7,0.2c-0.7,0.1-1.2,0-1.8,0c-15.4-1.2-30.8-2.5-46.3-3.7c-0.7,0-1.2-0.1-1.6-0.3c-0.5-0.1-0.8-0.2-1-0.4     c-0.3-0.1-0.4-0.3-0.4-0.6c0-0.2,0-0.4,0.4-0.6c5.9-4.9,12-9.8,18-14.8c0.3-0.2,0.5-0.4,0.9-0.5c0.5-0.2,1-0.3,1.6-0.4     c0.7-0.1,1-0.1,1.7-0.2c0.7-0.1,1.3,0,2,0C933.1,1333.6,948.2,1334.8,963.4,1336L963.4,1336z M1023.6,1340.9L1023.6,1340.9     c0.7,0.1,1.3,0.1,1.6,0.3c0.5,0.1,0.8,0.2,1,0.4c0.3,0.1,0.4,0.3,0.5,0.5c-0.1,0.2-0.1,0.4-0.3,0.6c-5.6,5-11.1,10-16.5,15     c-0.4,0.2-0.7,0.4-1,0.6c-0.4,0.1-0.9,0.3-1.4,0.4c-0.5,0.1-1.2,0.2-1.7,0.2c-0.7,0-1.2,0-1.8,0c-15.3-1.2-30.6-2.5-46-3.7     c-0.5-0.1-1.2-0.2-1.6-0.3c-0.5-0.1-0.9-0.3-1-0.4c-0.3-0.2-0.4-0.4-0.5-0.5c0.1-0.2,0.1-0.4,0.5-0.6c5.6-4.9,11.4-9.9,17.1-14.9     c0.1-0.2,0.5-0.4,0.9-0.5c0.4-0.2,1-0.3,1.4-0.4c0.5-0.1,1.2-0.2,1.8-0.2c0.5,0,1,0,1.7,0     C993.6,1338.5,1008.6,1339.7,1023.6,1340.9L1023.6,1340.9z M1083.6,1345.8L1083.6,1345.8c0.7,0,1.2,0.1,1.6,0.2     c0.5,0.1,0.8,0.3,1.2,0.4c0.3,0.2,0.4,0.4,0.4,0.6c-0.1,0.2-0.1,0.4-0.3,0.6c-5.2,5-10.5,10.1-15.6,15.1     c-0.3,0.2-0.5,0.4-0.9,0.6c-0.5,0.2-0.8,0.3-1.6,0.4c-0.5,0.1-0.9,0.1-1.6,0.2c-0.7,0-1.3,0-1.8,0c-15.3-1.2-30.5-2.5-45.7-3.7     c-0.5-0.1-1.2-0.2-1.6-0.3c-0.4-0.1-0.8-0.3-1-0.5c-0.3-0.1-0.4-0.3-0.4-0.5c-0.1-0.2,0-0.4,0.3-0.6c5.4-5,10.9-10,16.3-15     c0.3-0.2,0.5-0.4,0.9-0.6c0.4-0.1,0.9-0.3,1.4-0.4c0.7-0.1,1-0.1,1.7-0.2c0.7-0.1,1.3,0,1.8,0     C1053.8,1343.4,1068.7,1344.6,1083.6,1345.8L1083.6,1345.8z M1143.4,1350.7L1143.4,1350.7c0.5,0.1,1.2,0.1,1.4,0.3     c0.5,0.1,0.9,0.2,1.2,0.4c0.3,0.1,0.4,0.3,0.5,0.5c0,0.2-0.1,0.4-0.4,0.6c-5,5.1-9.8,10.2-14.6,15.2c-0.1,0.2-0.4,0.4-0.9,0.6     c-0.4,0.2-0.8,0.3-1.4,0.4c-0.4,0.1-1,0.2-1.7,0.2c-0.4,0-1,0-1.7,0c-15-1.2-30.2-2.5-45.5-3.8c-0.5,0-1-0.1-1.6-0.3     c-0.4-0.1-0.7-0.2-1-0.4c-0.1-0.2-0.3-0.4-0.4-0.6c-0.1-0.2,0-0.4,0.3-0.6c5-5,10.2-10.1,15.4-15.1c0.3-0.2,0.5-0.4,0.9-0.5     c0.5-0.2,0.9-0.3,1.3-0.4c0.7-0.1,1.2-0.1,1.8-0.2c0.5,0,1.2,0,1.7,0C1113.6,1348.2,1128.5,1349.5,1143.4,1350.7L1143.4,1350.7z      M1202.7,1355.6c-14.9-1.2-29.7-2.4-44.4-3.7c-0.5-0.1-1.2-0.1-1.7,0c-0.7,0-1.2,0.1-1.7,0.2c-0.5,0.1-0.9,0.2-1.4,0.4     c-0.1,0.1-0.5,0.3-0.8,0.5c-5,5.1-9.9,10.2-14.5,15.2c-0.4,0.2-0.4,0.4-0.3,0.7c-0.1,0.2,0.1,0.4,0.4,0.6c0.3,0.1,0.7,0.3,1,0.4     c0.4,0.1,1,0.2,1.6,0.3c15.2,1.3,30.1,2.5,45.2,3.8c0.5,0.1,1.2,0.1,1.8,0c0.4,0,1-0.1,1.6-0.2c0.5-0.1,0.9-0.3,1.3-0.4     c0.4-0.2,0.7-0.3,0.9-0.6c4.6-5.1,9.1-10.2,13.9-15.3c0.3-0.2,0.4-0.4,0.3-0.6c-0.1-0.2-0.3-0.4-0.5-0.6c-0.3-0.1-0.7-0.3-1-0.4     C1203.9,1355.7,1203.4,1355.6,1202.7,1355.6L1202.7,1355.6L1202.7,1355.6z M1261.7,1360.5L1261.7,1360.5L1261.7,1360.5     L1261.7,1360.5L1261.7,1360.5c-14.6-1.2-29.4-2.4-44-3.7c-0.7-0.1-1.3,0-1.8,0c-0.5,0.1-1,0.1-1.6,0.2c-0.5,0.1-0.9,0.2-1.3,0.4     c-0.4,0.2-0.7,0.4-0.9,0.6c-4.6,5.1-9.2,10.2-13.9,15.3c-0.3,0.2-0.3,0.4,0,0.6c0,0.2,0.1,0.4,0.4,0.6c0.3,0.2,0.7,0.3,1.2,0.5     c0.4,0.1,0.8,0.2,1.3,0.3c15,1.3,30.1,2.5,45,3.8c0.5,0.1,1.2,0,1.7,0c0.7,0,1.3-0.1,1.7-0.2c0.7-0.1,1-0.3,1.3-0.4     c0.4-0.2,0.8-0.4,0.8-0.6c4.4-5.1,8.9-10.3,13.2-15.4c0.1-0.2,0.3-0.4,0.1-0.6c0-0.2-0.3-0.4-0.4-0.6c-0.3-0.1-0.7-0.3-1.2-0.4     C1262.8,1360.6,1262.3,1360.5,1261.7,1360.5L1261.7,1360.5L1261.7,1360.5z M1320.2,1365.4c-14.5-1.2-29.1-2.4-43.8-3.7     c-0.5-0.1-1-0.1-1.7,0c-0.7,0-1.2,0.1-1.7,0.2c-0.4,0.1-0.8,0.2-1.2,0.4c-0.4,0.2-0.8,0.4-0.8,0.6c-4.4,5.2-8.8,10.3-13.1,15.4     c-0.1,0.2-0.3,0.4-0.3,0.7c0.3,0.2,0.4,0.4,0.5,0.5c0.3,0.2,0.7,0.3,1.2,0.5c0.4,0.1,0.9,0.2,1.6,0.3c14.9,1.3,29.8,2.5,44.6,3.8     c0.7,0,1.2,0,1.7,0c0.7-0.1,1-0.1,1.7-0.2c0.5-0.1,0.9-0.3,1.2-0.4c0.5-0.2,0.8-0.4,0.9-0.6c3.9-5.2,8.2-10.4,12.4-15.6     c0-0.2,0-0.4-0.1-0.6c0-0.2-0.1-0.4-0.5-0.5c-0.3-0.1-0.5-0.3-0.9-0.4C1321.5,1365.5,1320.9,1365.4,1320.2,1365.4L1320.2,1365.4     L1320.2,1365.4z M1449.7,1376.4c-38-3.2-76.3-6.5-114.6-9.8c-0.7-0.1-1.3,0-1.8,0c-0.5,0-1,0.1-1.7,0.2c-0.4,0.1-0.9,0.3-1.2,0.4     c-0.4,0.2-0.5,0.3-0.8,0.5c-4.2,5.2-8.1,10.4-12.4,15.6c0,0.2,0,0.4,0,0.6c0.1,0.2,0.4,0.4,0.7,0.5c0.3,0.2,0.5,0.4,1,0.5     c0.3,0.1,0.9,0.2,1.4,0.3c39.1,3.4,78,6.7,116.7,10c0.5,0.1,1.2,0,1.7,0c0.5-0.1,1-0.1,1.6-0.2c0.5-0.1,0.8-0.2,1-0.4     c0.5-0.2,0.8-0.4,0.9-0.6c3.5-5.2,7.1-10.5,10.6-15.8c0.3-0.2,0.1-0.4,0-0.6c0-0.2-0.3-0.4-0.7-0.5c-0.1-0.2-0.4-0.3-1-0.5     C1450.8,1376.5,1450.4,1376.4,1449.7,1376.4L1449.7,1376.4L1449.7,1376.4z M772.2,1300.4L772.2,1300.4c0.7,0.1,1.3,0.1,1.7,0.2     c0.4,0.1,0.7,0.2,0.8,0.4c0.3,0.1,0.4,0.3,0.5,0.5c0,0.2-0.3,0.4-0.5,0.5c-6.5,4.6-13.1,9.2-19.6,13.8c-0.3,0.2-0.8,0.4-1,0.5     c-0.7,0.2-1.2,0.3-1.6,0.3c-0.8,0.1-1.2,0.2-1.8,0.2c-0.7,0-1.3,0-2,0c-15.4-1.2-30.8-2.4-46.3-3.6c-0.6,0-1.2-0.1-1.6-0.2     c-0.5-0.1-0.7-0.2-0.9-0.4c-0.3-0.1-0.4-0.3-0.5-0.5c0-0.2,0.3-0.4,0.5-0.6c6.8-4.5,13.6-9.1,20.5-13.6c0.3-0.2,0.7-0.4,1-0.5     c0.5-0.1,1-0.3,1.6-0.3c0.7-0.1,1.3-0.2,1.8-0.2c0.7,0,1.3,0,1.8,0C741.8,1298.1,757,1299.3,772.2,1300.4L772.2,1300.4z      M832.7,1305.1c-15-1.2-30.2-2.3-45.2-3.5c-0.5-0.1-1.2,0-1.8,0c-0.7,0-1.2,0.1-1.8,0.2c-0.5,0.1-1,0.2-1.4,0.3     c-0.5,0.1-0.8,0.3-1.2,0.5c-6.5,4.6-13.1,9.2-19.5,13.8c-0.3,0.2-0.4,0.4-0.5,0.5c0,0.2,0.3,0.4,0.5,0.5c0.1,0.1,0.4,0.3,0.8,0.4     c0.4,0.1,1,0.2,1.7,0.2c15.3,1.2,30.6,2.4,46,3.6c0.7,0,1.2,0,1.8,0c0.5-0.1,1.2-0.1,1.8-0.2c0.5-0.1,1-0.2,1.4-0.3     c0.5-0.2,0.8-0.3,1-0.5c6.3-4.6,12.5-9.2,18.8-13.9c0.4-0.2,0.4-0.4,0.4-0.5c0.1-0.2-0.1-0.3-0.4-0.5c-0.1-0.1-0.5-0.3-0.9-0.4     C833.7,1305.3,833.3,1305.2,832.7,1305.1L832.7,1305.1L832.7,1305.1z M892.8,1309.8L892.8,1309.8c0.7,0.1,1.2,0.2,1.7,0.2     c0.3,0.1,0.7,0.2,0.8,0.4c0.3,0.1,0.5,0.3,0.4,0.5c0.1,0.2,0,0.4-0.3,0.5c-6,4.7-12,9.4-18,14c-0.1,0.2-0.5,0.4-0.9,0.5     c-0.4,0.1-0.9,0.3-1.6,0.4c-0.5,0.1-1,0.2-1.7,0.2c-0.7,0-1.2,0-1.8,0c-15.3-1.2-30.6-2.4-45.9-3.6c-0.5,0-1-0.1-1.6-0.2     c-0.4-0.1-0.8-0.3-1-0.4c-0.1-0.1-0.3-0.3-0.3-0.5c0-0.2,0.1-0.4,0.4-0.6c6.1-4.6,12.4-9.2,18.7-13.9c0.1-0.2,0.7-0.4,1-0.5     c0.4-0.1,0.9-0.3,1.4-0.3c0.7-0.1,1.2-0.2,1.8-0.2c0.7,0,1.3,0,1.7,0C862.9,1307.5,877.8,1308.7,892.8,1309.8L892.8,1309.8z      M952.5,1314.5c-14.9-1.2-29.8-2.3-44.7-3.5c-0.5-0.1-1.2,0-1.7,0c-0.7,0-1.3,0.1-1.8,0.2c-0.5,0.1-1,0.2-1.4,0.3     c-0.5,0.2-0.8,0.3-1,0.5c-6,4.7-11.9,9.4-17.8,14c-0.3,0.2-0.4,0.4-0.4,0.6c0.1,0.2,0.1,0.3,0.4,0.5c0.1,0.1,0.5,0.3,1,0.4     c0.4,0.1,0.9,0.2,1.4,0.3c15.2,1.2,30.5,2.4,45.6,3.6c0.5,0.1,1.2,0.1,1.8,0.1c0.7-0.1,1.2-0.1,1.7-0.2c0.7-0.1,1-0.2,1.4-0.4     c0.5-0.1,0.8-0.3,0.9-0.5c5.8-4.7,11.5-9.4,17.1-14.1c0.4-0.2,0.4-0.4,0.3-0.5c0.1-0.2-0.1-0.4-0.3-0.5c-0.3-0.1-0.5-0.3-1-0.4     C953.7,1314.7,953.2,1314.6,952.5,1314.5L952.5,1314.5z M1012,1319.3c-14.8-1.2-29.7-2.3-44.6-3.5c-0.5-0.1-1.2,0-1.7,0     c-0.5,0-1.3,0.1-1.8,0.2c-0.4,0.1-0.9,0.2-1.3,0.3c-0.5,0.2-0.7,0.3-0.9,0.5c-5.8,4.7-11.4,9.4-17,14.1c-0.3,0.2-0.5,0.4-0.3,0.6     c-0.1,0.2,0.1,0.3,0.4,0.5c0.1,0.1,0.4,0.3,0.9,0.4c0.5,0.1,0.9,0.2,1.6,0.3c15,1.2,30.2,2.4,45.4,3.6c0.5,0.1,1,0.1,1.7,0.1     c0.7-0.1,1.2-0.1,1.7-0.2c0.5-0.1,1-0.2,1.4-0.4c0.5-0.1,0.8-0.3,0.9-0.5c5.4-4.7,10.8-9.4,16.3-14.2c0.1-0.2,0.3-0.4,0.3-0.5     c0-0.2-0.3-0.4-0.4-0.5c-0.3-0.1-0.5-0.3-1-0.4C1013.2,1319.4,1012.7,1319.3,1012,1319.3L1012,1319.3L1012,1319.3z M1071.1,1324     c-14.6-1.2-29.5-2.3-44.2-3.5c-0.5-0.1-1.2-0.1-1.8,0c-0.5,0-1.2,0.1-1.6,0.2c-0.5,0.1-1,0.2-1.4,0.3c-0.4,0.2-0.8,0.3-0.9,0.5     c-5.5,4.7-10.8,9.5-16.2,14.2c-0.1,0.2-0.3,0.4-0.3,0.6c0,0.2,0.1,0.3,0.5,0.5c0.1,0.1,0.5,0.3,0.9,0.4c0.4,0.1,0.9,0.2,1.6,0.3     c14.9,1.2,29.9,2.4,45,3.6c0.7,0.1,1.3,0.1,1.8,0.1c0.5-0.1,1.2-0.1,1.7-0.2c0.5-0.1,1-0.2,1.4-0.4c0.3-0.2,0.7-0.3,0.9-0.5     c5.1-4.8,10.2-9.5,15.3-14.3c0.4-0.2,0.4-0.3,0.4-0.5c-0.1-0.2-0.4-0.4-0.5-0.5c-0.3-0.1-0.7-0.3-1-0.4     C1072.1,1324.1,1071.7,1324.1,1071.1,1324L1071.1,1324L1071.1,1324z M1129.9,1328.7c-14.5-1.2-29.4-2.3-43.9-3.5     c-0.7-0.1-1.2-0.1-1.8,0c-0.7,0-1,0.1-1.6,0.2c-0.7,0.1-1,0.2-1.6,0.4c-0.4,0.1-0.7,0.3-0.8,0.5c-5.1,4.8-10.2,9.5-15.3,14.3     c-0.1,0.2-0.3,0.4-0.3,0.6c0,0.2,0.3,0.4,0.5,0.6c0.3,0.1,0.5,0.3,1,0.4c0.4,0.1,0.9,0.2,1.4,0.3c14.9,1.2,29.8,2.5,44.7,3.7     c0.7,0,1.3,0,1.8,0c0.5-0.1,1.2-0.1,1.7-0.2c0.5-0.1,0.9-0.3,1.4-0.4c0.4-0.2,0.7-0.4,0.8-0.6c4.8-4.8,9.8-9.5,14.6-14.3     c0.1-0.2,0.3-0.4,0.1-0.6c0-0.2-0.3-0.4-0.4-0.5c-0.4-0.1-0.7-0.3-1.2-0.4C1130.9,1328.9,1130.4,1328.8,1129.9,1328.7     L1129.9,1328.7L1129.9,1328.7z M1188.3,1333.5L1188.3,1333.5c0.7,0.1,1.2,0.1,1.6,0.3c0.5,0.1,0.8,0.2,1,0.4     c0.3,0.1,0.4,0.3,0.4,0.5c0.1,0.2,0,0.4-0.1,0.6c-4.6,4.8-9.3,9.6-13.9,14.5c-0.1,0.2-0.4,0.4-0.8,0.5c-0.3,0.2-0.9,0.3-1.3,0.4     c-0.5,0.1-1.2,0.2-1.6,0.2c-0.7,0-1.3,0-1.8-0.1c-14.9-1.2-29.7-2.4-44.4-3.6c-0.7-0.1-1.2-0.1-1.6-0.3c-0.5-0.1-0.8-0.2-1-0.4     c-0.3-0.1-0.4-0.3-0.4-0.5c-0.1-0.2-0.1-0.4,0.1-0.6c4.8-4.8,9.7-9.6,14.6-14.4c0.1-0.2,0.4-0.4,0.7-0.5c0.5-0.2,0.9-0.3,1.4-0.4     c0.5-0.1,1-0.1,1.7-0.2c0.4,0,1,0,1.7,0C1159,1331.2,1173.8,1332.3,1188.3,1333.5L1188.3,1333.5z M1246.5,1338.3L1246.5,1338.3     c0.7,0.1,1.2,0.1,1.6,0.2c0.5,0.1,0.8,0.3,1,0.4c0.3,0.1,0.4,0.3,0.4,0.5c0.1,0.2,0.1,0.4-0.1,0.6c-4.3,4.9-8.8,9.7-12.9,14.6     c-0.1,0.2-0.7,0.4-0.8,0.5c-0.5,0.2-0.9,0.3-1.4,0.4c-0.5,0.1-0.9,0.1-1.4,0.2c-0.6,0-1.3,0-1.8,0c-14.9-1.2-29.7-2.4-44.3-3.7     c-0.4-0.1-0.9-0.2-1.4-0.3c-0.4-0.1-0.8-0.2-1-0.4c-0.3-0.1-0.4-0.3-0.5-0.5c0-0.2,0-0.4,0.1-0.6c4.6-4.8,9.2-9.6,13.7-14.5     c0.3-0.2,0.5-0.4,0.8-0.5c0.5-0.2,0.9-0.3,1.4-0.4c0.5-0.1,1-0.1,1.6-0.2c0.5-0.1,1.2,0,1.7,0     C1217.5,1335.9,1232.1,1337.1,1246.5,1338.3L1246.5,1338.3z M1304.3,1343L1304.3,1343c0.5,0,1,0.1,1.4,0.2     c0.4,0.1,0.9,0.3,1.2,0.4c0.3,0.2,0.4,0.3,0.4,0.5c0.1,0.2,0.1,0.4-0.1,0.6c-4.1,4.9-8.1,9.8-12,14.7c-0.3,0.2-0.5,0.4-0.9,0.6     c-0.4,0.2-0.7,0.3-1.2,0.4c-0.7,0.1-1,0.2-1.7,0.2c-0.5,0.1-1.2,0-1.7,0c-14.6-1.2-29.4-2.4-44-3.7c-0.5-0.1-0.9-0.2-1.4-0.3     c-0.4-0.1-0.7-0.2-1-0.4c-0.3-0.1-0.4-0.3-0.4-0.6c-0.1-0.2-0.1-0.4,0-0.6c4.4-4.9,8.6-9.7,12.9-14.6c0.1-0.2,0.5-0.4,0.8-0.5     c0.4-0.2,0.8-0.3,1.3-0.4c0.5-0.1,0.9-0.1,1.6-0.2c0.5,0,1.2,0,1.7,0.1C1275.4,1340.7,1289.9,1341.9,1304.3,1343L1304.3,1343z      M1463.3,1356.3L1463.3,1356.3c0.5,0.1,1,0.2,1.4,0.3c0.5,0.1,0.8,0.3,1.2,0.4c0.3,0.2,0.4,0.4,0.4,0.6c0.3,0.2,0.1,0.4-0.1,0.6     c-3.1,5-6.7,10-9.9,15c0,0.2-0.4,0.4-0.8,0.5c-0.3,0.2-0.7,0.3-1.2,0.4c-0.3,0.1-0.8,0.2-1.4,0.2c-0.4,0-1,0-1.7,0     c-29.2-2.5-58.3-5-87.6-7.5c-0.4-0.1-1.2-0.1-1.4-0.3c-0.5-0.1-0.9-0.2-1.2-0.4c-0.3-0.2-0.4-0.4-0.4-0.6c-0.1-0.2-0.1-0.4,0-0.6     c3.7-4.9,7.5-9.8,11.4-14.8c0.1-0.2,0.4-0.4,0.7-0.5c0.4-0.2,0.9-0.3,1.3-0.4c0.4-0.1,0.9-0.1,1.4-0.2c0.7,0,1.2,0,1.7,0     C1406,1351.5,1434.7,1353.9,1463.3,1356.3L1463.3,1356.3z M1361.8,1347.8L1361.8,1347.8c0.5,0.1,0.9,0.1,1.4,0.3     c0.4,0.1,0.9,0.2,1,0.4c0.3,0.2,0.5,0.3,0.7,0.5c0,0.2,0,0.4-0.1,0.6c-3.9,5-7.7,9.9-11.5,14.8c-0.1,0.2-0.4,0.4-0.9,0.6     c-0.1,0.2-0.7,0.3-1,0.4c-0.5,0.1-1,0.2-1.7,0.2c-0.5,0.1-1,0-1.6,0c-14.6-1.2-29.3-2.4-43.8-3.7c-0.4-0.1-1-0.1-1.4-0.3     c-0.5-0.1-0.9-0.2-1-0.4c-0.4-0.2-0.5-0.4-0.7-0.5c0-0.2,0-0.4,0.1-0.6c4.1-4.9,8-9.8,12.2-14.7c0.3-0.2,0.4-0.4,0.8-0.5     c0.4-0.2,0.8-0.3,1.3-0.4c0.4-0.1,0.9-0.1,1.6-0.2c0.5,0,1.2,0,1.7,0C1333,1345.4,1347.3,1346.6,1361.8,1347.8L1361.8,1347.8     L1361.8,1347.8L1361.8,1347.8L1361.8,1347.8L1361.8,1347.8z M724.6,1277.4L724.6,1277.4c0.7,0.1,1.2,0.1,1.6,0.2     c0.5,0.1,0.7,0.2,0.9,0.4c0.3,0.1,0.3,0.3,0.3,0.4c0,0.2-0.1,0.3-0.4,0.5c-6.7,4.4-13.3,8.7-20,13c-0.3,0.2-0.7,0.3-1,0.4     c-0.5,0.2-1,0.3-1.6,0.3c-0.7,0.1-1.2,0.2-1.8,0.2c-0.7,0-1.3,0-1.8,0c-25-1.9-49.9-3.8-74.9-5.7c-0.7-0.1-1.2-0.1-1.7-0.2     c-0.3-0.1-0.7-0.2-0.8-0.4c-0.3-0.1-0.4-0.3-0.3-0.5c0-0.2,0.1-0.3,0.4-0.5c6.9-4.3,14-8.5,21.2-12.8c0.4-0.2,0.7-0.3,1.2-0.5     c0.5-0.1,0.9-0.3,1.6-0.3c0.7-0.1,1.3-0.2,1.8-0.2c0.5,0,1.2,0,1.8,0C675.6,1273.7,700,1275.6,724.6,1277.4L724.6,1277.4z      M785.4,1282c-14.9-1.1-29.8-2.2-44.7-3.4c-0.7-0.1-1.2-0.1-1.7-0.1c-0.7,0.1-1.2,0.1-1.8,0.2c-0.5,0.1-1,0.2-1.4,0.3     c-0.5,0.1-0.8,0.3-1.2,0.5c-6.7,4.3-13.3,8.6-19.9,13c-0.4,0.2-0.4,0.4-0.5,0.5c0.1,0.2,0.3,0.3,0.4,0.5c0.1,0.1,0.5,0.3,1,0.4     c0.3,0.1,0.8,0.2,1.4,0.3c15.2,1.2,30.3,2.3,45.5,3.5c0.5,0.1,1.2,0.1,1.8,0.1c0.7-0.1,1.2-0.1,1.7-0.2c0.5-0.1,1.2-0.2,1.6-0.3     c0.5-0.1,0.8-0.3,1-0.5c6.3-4.3,12.8-8.7,19.2-13c0.3-0.2,0.3-0.3,0.4-0.5c0-0.1-0.1-0.3-0.4-0.4c-0.1-0.1-0.5-0.3-0.9-0.4     C786.4,1282.2,786,1282.1,785.4,1282L785.4,1282L785.4,1282z M844.8,1286.6c-14.9-1.1-29.8-2.2-44.4-3.4c-0.7,0-1.3,0-2,0     c-0.5,0-1.2,0.1-1.6,0.2c-0.7,0.1-1.2,0.2-1.6,0.3c-0.4,0.2-0.8,0.3-1,0.5c-6.4,4.4-12.7,8.7-19.1,13.1c-0.3,0.2-0.4,0.4-0.4,0.5     c0.1,0.2,0.3,0.3,0.4,0.5c0.3,0.1,0.5,0.2,0.9,0.3c0.4,0.1,1,0.2,1.6,0.3c15,1.2,30.1,2.4,45.2,3.5c0.7,0.1,1.3,0,1.7,0     c0.7,0,1.3-0.1,1.8-0.2c0.5-0.1,1-0.2,1.4-0.3c0.5-0.1,0.9-0.3,1.2-0.5c6-4.4,12-8.7,18.2-13.2c0.4-0.2,0.5-0.4,0.4-0.5     c0-0.2-0.1-0.3-0.3-0.5c-0.3-0.1-0.5-0.2-1-0.3C845.9,1286.7,845.3,1286.6,844.8,1286.6L844.8,1286.6L844.8,1286.6z      M903.9,1291.2L903.9,1291.2c0.5,0.1,0.9,0.1,1.4,0.2c0.3,0.1,0.7,0.2,0.9,0.4c0.4,0.1,0.4,0.3,0.4,0.5c0.1,0.1-0.1,0.3-0.3,0.5     c-6,4.5-11.8,8.9-17.5,13.3c-0.1,0.2-0.5,0.4-0.9,0.5c-0.5,0.2-1,0.3-1.4,0.3c-0.7,0.1-1.3,0.2-1.8,0.2c-0.5,0-1.2,0-1.8-0.1     c-15-1.2-29.9-2.3-44.8-3.5c-0.7,0-1.2-0.1-1.7-0.2c-0.3-0.1-0.7-0.2-0.9-0.4c-0.1-0.1-0.3-0.3-0.4-0.5c0.1-0.2,0.1-0.4,0.4-0.5     c6-4.4,12-8.7,18.3-13.2c0.3-0.2,0.5-0.4,0.9-0.5c0.4-0.1,1-0.2,1.4-0.3c0.5-0.1,1.2-0.2,1.7-0.2c0.7,0,1.3,0,1.8,0     C874.4,1288.9,889.1,1290,903.9,1291.2L903.9,1291.2z M962.5,1295.8c-14.6-1.1-29.3-2.3-43.8-3.4c-0.7-0.1-1.3-0.1-1.8-0.1     c-0.7,0.1-1.2,0.1-1.7,0.2c-0.5,0.1-1,0.2-1.4,0.3c-0.5,0.1-0.8,0.3-1,0.4c-5.8,4.4-11.5,8.9-17.3,13.3c-0.3,0.2-0.4,0.4-0.4,0.5     c0,0.2,0.1,0.3,0.4,0.5c0.3,0.1,0.7,0.3,1,0.4c0.3,0.1,0.8,0.2,1.4,0.3c14.9,1.2,29.8,2.4,44.8,3.5c0.5,0.1,1.2,0,1.7,0     c0.7,0,1.2-0.1,1.7-0.2c0.5-0.1,0.9-0.2,1.4-0.3c0.4-0.2,0.8-0.3,0.9-0.5c5.5-4.4,11.1-8.9,16.6-13.4c0.3-0.2,0.4-0.4,0.3-0.5     c0.1-0.2-0.1-0.3-0.3-0.5c-0.3-0.1-0.7-0.3-1-0.4C963.6,1295.9,963.1,1295.8,962.5,1295.8L962.5,1295.8z M1021,1300.3     L1021,1300.3c0.5,0.1,0.9,0.2,1.4,0.3c0.4,0.1,0.8,0.2,1,0.3c0.1,0.1,0.4,0.3,0.4,0.5c0,0.2,0,0.4-0.3,0.5     c-5.4,4.5-10.6,9-15.8,13.5c-0.1,0.2-0.5,0.4-0.9,0.5c-0.4,0.1-0.9,0.3-1.4,0.3c-0.5,0.1-1,0.1-1.7,0.2c-0.5,0.1-1.2,0-1.7,0     c-14.9-1.2-29.7-2.3-44.4-3.5c-0.7,0-1.2-0.1-1.6-0.2c-0.5-0.1-0.8-0.2-1-0.4c-0.3-0.2-0.4-0.3-0.3-0.5c-0.1-0.1,0-0.3,0.3-0.5     c5.4-4.4,10.8-8.9,16.5-13.3c0.3-0.2,0.5-0.4,0.9-0.5c0.4-0.1,0.9-0.3,1.3-0.3c0.5-0.1,1.2-0.2,1.7-0.2c0.7,0,1.3,0,1.8,0     C991.9,1298,1006.4,1299.2,1021,1300.3L1021,1300.3z M1079.2,1304.9L1079.2,1304.9c0.4,0.1,0.9,0.1,1.4,0.2     c0.4,0.1,0.8,0.2,1,0.4c0.1,0.1,0.3,0.3,0.3,0.5c0.1,0.2,0,0.4-0.3,0.5c-5,4.5-9.9,9.1-14.8,13.5c-0.3,0.2-0.8,0.4-0.9,0.5     c-0.5,0.2-0.9,0.3-1.3,0.3c-0.7,0.1-1.3,0.2-1.7,0.2c-0.7,0-1.3,0-1.8,0c-14.8-1.2-29.5-2.3-44.2-3.5c-0.7-0.1-1.2-0.2-1.6-0.3     c-0.4-0.1-0.9-0.2-1-0.4c-0.3-0.1-0.4-0.3-0.4-0.5c-0.1-0.2,0-0.4,0.3-0.6c5.2-4.5,10.5-9,15.7-13.5c0.1-0.2,0.5-0.3,0.9-0.4     c0.4-0.2,0.8-0.3,1.2-0.3c0.7-0.1,1.2-0.2,1.8-0.2c0.5-0.1,1.2,0,1.8,0c14.4,1.2,28.9,2.3,43.4,3.4l0,0l0,0L1079.2,1304.9     L1079.2,1304.9L1079.2,1304.9z M1136.8,1309.5L1136.8,1309.5c0.5,0.1,1,0.2,1.4,0.3c0.4,0.1,0.8,0.2,1,0.4     c0.4,0.1,0.4,0.3,0.4,0.5c0,0.2,0,0.3-0.1,0.5c-4.8,4.6-9.5,9.1-14.1,13.6c-0.3,0.2-0.5,0.4-0.9,0.5c-0.4,0.2-0.8,0.3-1.4,0.4     c-0.5,0.1-1,0.1-1.6,0.2c-0.5,0-1.2,0-1.8,0c-14.5-1.2-29.4-2.3-43.9-3.5c-0.4,0-1-0.1-1.3-0.2c-0.5-0.1-0.9-0.2-1.2-0.4     c-0.3-0.1-0.5-0.3-0.4-0.5c0-0.2,0-0.4,0.3-0.5c4.8-4.5,9.8-9,14.8-13.6c0.4-0.2,0.7-0.4,0.9-0.5c0.4-0.2,0.8-0.3,1.4-0.3     c0.4-0.1,0.9-0.2,1.6-0.2c0.5,0,1.2,0,1.7,0C1108.1,1307.2,1122.3,1308.4,1136.8,1309.5L1136.8,1309.5z M1194.2,1314.1     L1194.2,1314.1c0.7,0.1,1.2,0.1,1.6,0.2c0.4,0.1,0.8,0.2,1,0.4c0.3,0.2,0.4,0.3,0.4,0.5c0,0.2,0.1,0.3,0,0.5     c-4.7,4.6-9,9.2-13.3,13.7c-0.3,0.2-0.7,0.4-1,0.5c-0.3,0.1-0.8,0.2-1.2,0.3c-0.7,0.1-1.2,0.2-1.8,0.2c-0.5,0-1,0-1.7,0     c-14.5-1.2-29.1-2.3-43.5-3.6c-0.7-0.1-1.3-0.2-1.6-0.3c-0.5-0.1-0.8-0.2-1-0.4c-0.3-0.2-0.4-0.3-0.5-0.5c-0.1-0.2,0-0.4,0.4-0.6     c4.6-4.5,9.3-9.1,14-13.6c0.1-0.2,0.5-0.4,0.8-0.5c0.4-0.1,0.8-0.2,1.3-0.3c0.5-0.1,1.2-0.2,1.6-0.2c0.5,0,1.2,0,1.8,0     C1165.6,1311.9,1180,1313,1194.2,1314.1L1194.2,1314.1z M1251.5,1318.8c-14.2-1.1-28.5-2.3-42.9-3.5c-0.5-0.1-1.2-0.1-1.6-0.1     c-0.7,0.1-1.2,0.1-1.7,0.2c-0.4,0.1-0.8,0.2-1.2,0.3c-0.4,0.1-0.7,0.3-0.8,0.5c-4.6,4.6-9,9.2-13.3,13.8     c-0.3,0.2-0.3,0.3-0.1,0.5c0,0.2,0.1,0.4,0.4,0.5c0.3,0.1,0.5,0.3,1,0.4c0.4,0.1,0.9,0.2,1.6,0.3c14.4,1.2,28.9,2.4,43.4,3.6     c0.5,0.1,1.2,0.1,1.7,0c0.7,0,1.2-0.1,1.6-0.2c0.5-0.1,0.9-0.3,1.3-0.4c0.3-0.2,0.7-0.3,0.9-0.5c4-4.6,8.1-9.2,12.4-13.8     c0.3-0.2,0.3-0.4,0.1-0.6c0-0.2-0.1-0.3-0.4-0.5c-0.4-0.1-0.8-0.3-1-0.4C1252.5,1318.9,1252,1318.8,1251.5,1318.8L1251.5,1318.8     L1251.5,1318.8z M1308.2,1323.4c-14.1-1.1-28.4-2.3-42.4-3.5c-0.7,0-1.3,0-1.8,0c-0.5,0-1,0.1-1.4,0.2c-0.7,0.1-1,0.2-1.4,0.4     c-0.1,0.1-0.5,0.3-0.8,0.5c-4.1,4.6-8.2,9.2-12.4,13.9c-0.1,0.2-0.3,0.4-0.1,0.6c0,0.2,0.3,0.3,0.5,0.5c0.3,0.2,0.5,0.3,0.9,0.4     c0.5,0.1,0.9,0.2,1.6,0.3c14.4,1.2,28.9,2.3,43.3,3.5c0.5,0.1,1.2,0.1,1.7,0.1c0.5-0.1,1-0.1,1.6-0.2c0.4-0.1,0.8-0.2,1.3-0.4     c0.3-0.1,0.5-0.3,0.7-0.5c3.9-4.6,7.8-9.3,11.9-13.9c0.1-0.2,0.3-0.4,0.1-0.6c-0.1-0.1-0.4-0.3-0.5-0.5c-0.4-0.1-0.7-0.3-1-0.4     C1309.4,1323.6,1308.8,1323.5,1308.2,1323.4L1308.2,1323.4L1308.2,1323.4z M1364.8,1328.1L1364.8,1328.1L1364.8,1328.1     L1364.8,1328.1l-0.1,0c-14.1-1.1-28.2-2.3-42.2-3.5c-0.4-0.1-1-0.1-1.6,0c-0.7,0-1.2,0.1-1.6,0.2c-0.5,0.1-1,0.2-1.3,0.3     c-0.3,0.2-0.5,0.3-0.6,0.5c-3.9,4.6-7.8,9.3-11.8,13.9c-0.3,0.2-0.3,0.4-0.1,0.6c0.1,0.2,0.3,0.3,0.5,0.5c0.3,0.1,0.7,0.3,1,0.4     c0.3,0.1,0.9,0.2,1.6,0.3c14.2,1.2,28.5,2.4,42.9,3.6c0.7,0.1,1,0,1.7,0c0.5,0,1-0.1,1.6-0.2c0.4-0.1,0.8-0.2,1-0.4     c0.4-0.1,0.7-0.3,0.9-0.5c3.7-4.7,7.3-9.4,11.1-14c0.1-0.2,0.3-0.3,0-0.5c0-0.2-0.3-0.3-0.5-0.5c-0.1-0.2-0.5-0.3-0.9-0.4     C1366,1328.2,1365.4,1328.1,1364.8,1328.1L1364.8,1328.1z M1476.3,1337.3c-14-1.2-28.1-2.3-41.8-3.5c-0.5-0.1-1.2,0-1.6,0     c-0.5,0-1,0.1-1.7,0.2c-0.4,0.1-0.7,0.2-1,0.3c-0.3,0.2-0.5,0.3-0.8,0.5c-3.4,4.7-6.8,9.4-10.3,14.1c0,0.2,0,0.4,0,0.6     c0,0.2,0.4,0.4,0.5,0.6c0.3,0.1,0.8,0.3,1.2,0.4c0.5,0.1,0.9,0.2,1.4,0.3c14.1,1.2,28.4,2.4,42.5,3.6c0.5,0.1,1.2,0,1.7,0     c0.5,0,0.9-0.1,1.6-0.2c0.4-0.1,0.9-0.2,1-0.4c0.4-0.2,0.5-0.3,0.7-0.5c3.3-4.7,6.4-9.5,9.8-14.3c0-0.2,0-0.4,0-0.5     c-0.1-0.2-0.3-0.4-0.5-0.5c-0.4-0.1-0.8-0.3-1.3-0.4C1477.3,1337.4,1476.8,1337.4,1476.3,1337.3L1476.3,1337.3L1476.3,1337.3z      M1421,1332.7c-14.1-1.1-28.1-2.3-42.1-3.5c-0.5,0-1.2,0-1.7,0c-0.5,0.1-1,0.1-1.3,0.2c-0.7,0.1-1,0.2-1.4,0.3     c-0.3,0.2-0.4,0.3-0.7,0.5c-3.7,4.7-7.3,9.4-11,14c-0.1,0.2-0.3,0.4-0.1,0.6c0.1,0.2,0.3,0.4,0.5,0.5c0.3,0.2,0.7,0.3,1.2,0.4     c0.4,0.1,0.8,0.2,1.4,0.2c14.1,1.2,28.4,2.4,42.5,3.6c0.8,0.1,1.4,0.1,2,0c0.4,0,0.9-0.1,1.6-0.2c0.4-0.1,0.7-0.2,1-0.4     c0.3-0.1,0.7-0.3,0.8-0.5c3.4-4.7,6.8-9.4,10.3-14.1c0-0.1,0.1-0.3,0-0.5c0-0.2-0.3-0.4-0.5-0.5c-0.3-0.1-0.7-0.3-0.9-0.4     C1422,1332.8,1421.5,1332.8,1421,1332.7L1421,1332.7L1421,1332.7z M781.2,1263.2L781.2,1263.2c0.5,0,1,0.1,1.6,0.2     c0.3,0.1,0.7,0.2,0.9,0.3c0.1,0.1,0.1,0.3,0.3,0.4c0,0.2-0.3,0.3-0.4,0.5c-6.3,4.2-12.5,8.3-19,12.4c-0.3,0.2-0.5,0.3-0.9,0.4     c-0.5,0.1-1,0.2-1.6,0.3c-0.5,0.1-1.2,0.2-1.8,0.2c-0.5,0-1.2,0-1.7,0c-15-1.1-29.8-2.2-44.7-3.4c-0.7-0.1-1.2-0.1-1.4-0.2     c-0.5-0.1-0.8-0.2-1-0.4c-0.1-0.1-0.3-0.3-0.3-0.4c0-0.2,0.1-0.3,0.3-0.5c6.5-4.1,13.1-8.2,19.7-12.3c0.3-0.2,0.5-0.3,0.9-0.4     c0.7-0.1,1.2-0.2,1.7-0.3c0.5-0.1,1-0.1,1.7-0.1c0.7,0,1.2,0,1.8,0C751.9,1261,766.5,1262.1,781.2,1263.2L781.2,1263.2z      M839.6,1267.6c-14.6-1.1-29.1-2.2-43.8-3.3c-0.7,0-1.2,0-1.8,0c-0.5,0-1.2,0.1-1.7,0.2c-0.5,0.1-1,0.2-1.4,0.3     c-0.4,0.1-0.8,0.3-1,0.4c-6.3,4.2-12.5,8.3-18.7,12.4c-0.3,0.2-0.4,0.3-0.4,0.5c0,0.1,0.1,0.3,0.3,0.4c0.3,0.1,0.5,0.3,1,0.4     c0.3,0.1,0.8,0.2,1.4,0.2l0,0l0,0l0,0l0,0c14.8,1.2,29.7,2.3,44.6,3.4c0.5,0,1.2,0,1.8,0c0.4,0,1-0.1,1.6-0.2     c0.5-0.1,1.2-0.2,1.4-0.3c0.5-0.1,0.9-0.3,1.2-0.5c5.9-4.1,11.9-8.3,17.9-12.5c0.3-0.2,0.4-0.3,0.3-0.5c0.1-0.2,0-0.3-0.3-0.4     c-0.1-0.1-0.5-0.3-0.9-0.4C840.5,1267.8,840.1,1267.7,839.6,1267.6L839.6,1267.6L839.6,1267.6z M897.6,1272.1L897.6,1272.1     c0.5,0.1,1,0.1,1.6,0.2c0.3,0.1,0.6,0.2,0.9,0.3c0.3,0.1,0.3,0.3,0.4,0.4c0,0.2-0.1,0.3-0.4,0.5c-5.8,4.2-11.5,8.4-17.1,12.6     c-0.3,0.2-0.7,0.3-1,0.5c-0.4,0.1-0.9,0.2-1.4,0.3c-0.5,0.1-1,0.1-1.7,0.2c-0.7,0-1.2,0-1.8,0c-14.8-1.1-29.4-2.3-44-3.4     c-0.7-0.1-1.2-0.1-1.7-0.2c-0.4-0.1-0.7-0.2-0.9-0.4c-0.3-0.1-0.3-0.3-0.3-0.4c-0.1-0.2,0-0.3,0.3-0.5     c5.9-4.1,11.9-8.3,17.9-12.5c0.3-0.2,0.5-0.3,1.2-0.5c0.4-0.1,0.7-0.2,1.3-0.3c0.5-0.1,1.2-0.1,1.7-0.1c0.7,0,1.2,0,1.7,0     C868.6,1269.9,883.1,1271,897.6,1272.1L897.6,1272.1z M955.5,1276.5c-14.5-1.1-28.9-2.2-43.4-3.3c-0.6-0.1-1.2-0.1-1.8-0.1     c-0.5,0-1.2,0.1-1.6,0.2c-0.5,0.1-1,0.2-1.4,0.3c-0.4,0.1-0.7,0.3-0.9,0.4c-5.8,4.2-11.5,8.4-17.1,12.6c-0.1,0.2-0.3,0.3-0.3,0.5     c0,0.2,0.1,0.3,0.4,0.5c0.1,0.1,0.5,0.2,0.9,0.3c0.4,0.1,0.9,0.2,1.6,0.2c14.6,1.2,29.2,2.3,43.9,3.4c0.7,0.1,1.3,0,1.8,0     c0.5,0,1-0.1,1.6-0.2c0.5-0.1,1-0.2,1.4-0.3c0.5-0.1,0.8-0.3,0.9-0.5c5.5-4.2,10.8-8.4,16.5-12.7c0.1-0.2,0.3-0.3,0.1-0.5     c0.1-0.2,0-0.3-0.3-0.4c-0.3-0.1-0.7-0.3-0.9-0.4C956.5,1276.7,956.1,1276.6,955.5,1276.5L955.5,1276.5L955.5,1276.5z      M1012.9,1281L1012.9,1281c0.5,0.1,1,0.1,1.6,0.2c0.3,0.1,0.7,0.2,0.9,0.3c0.3,0.1,0.4,0.3,0.4,0.5s-0.1,0.3-0.3,0.5     c-5.2,4.3-10.5,8.5-15.6,12.7c-0.3,0.2-0.7,0.4-0.8,0.5c-0.5,0.1-1,0.3-1.6,0.3c-0.5,0.1-1,0.1-1.6,0.2c-0.7,0.1-1.3,0-1.7,0     c-14.8-1.1-29.3-2.3-43.9-3.4c-0.5-0.1-1-0.2-1.4-0.3c-0.4-0.1-0.8-0.2-1-0.3c-0.1-0.1-0.3-0.3-0.4-0.5c0.1-0.2,0.1-0.3,0.3-0.5     c5.5-4.2,11-8.4,16.3-12.7c0.1-0.2,0.7-0.3,1-0.4c0.3-0.1,0.8-0.2,1.3-0.3c0.5-0.1,1-0.1,1.6-0.2c0.7,0,1.3,0,1.8,0     C984.3,1278.8,998.7,1279.9,1012.9,1281L1012.9,1281z M1070.2,1285.5c-14.2-1.1-28.5-2.2-42.9-3.3c-0.6,0-1.2,0-1.7,0     c-0.5,0-1,0.1-1.6,0.2c-0.7,0.1-1,0.2-1.4,0.3c-0.4,0.1-0.7,0.2-0.8,0.4c-5.2,4.3-10.5,8.5-15.6,12.7c-0.1,0.2-0.3,0.3-0.3,0.5     c0.1,0.1,0.1,0.3,0.4,0.5c0.1,0.1,0.5,0.2,1,0.3c0.4,0.1,0.9,0.2,1.4,0.3c14.5,1.1,29,2.3,43.5,3.4c0.5,0.1,1.2,0.1,1.8,0.1     c0.5-0.1,1-0.1,1.4-0.2c0.5-0.1,1-0.2,1.4-0.3c0.4-0.2,0.8-0.3,0.9-0.5c4.8-4.3,9.8-8.6,14.9-12.9c0.1-0.2,0.1-0.3,0.1-0.5     c0-0.2-0.3-0.3-0.4-0.4c-0.4-0.1-0.7-0.3-1-0.4C1071.2,1285.6,1070.7,1285.5,1070.2,1285.5L1070.2,1285.5L1070.2,1285.5z      M1127,1290c-14.2-1.1-28.4-2.2-42.6-3.4c-0.5-0.1-1.2,0-1.6,0c-0.7,0-1.2,0.1-1.7,0.2c-0.4,0-1,0.2-1.2,0.3     c-0.5,0.1-0.8,0.3-1,0.4c-5.1,4.3-9.9,8.6-14.8,12.9c-0.1,0.2-0.1,0.3-0.1,0.5c0,0.2,0.1,0.3,0.4,0.5c0.4,0.1,0.6,0.2,1,0.3     c0.4,0.1,0.9,0.2,1.6,0.3l0,0l0,0l0,0l0,0c14.2,1.2,28.6,2.3,43.3,3.5c0.5,0,1.2,0,1.7,0c0.4,0,1.2-0.1,1.6-0.2     c0.5-0.1,0.9-0.2,1.3-0.3c0.4-0.2,0.8-0.3,0.9-0.5c4.6-4.3,9.1-8.6,14-13c0.1-0.2,0.1-0.3,0.3-0.5c-0.1-0.1-0.3-0.3-0.5-0.5     c-0.3-0.1-0.7-0.2-1-0.3C1128.1,1290.1,1127.5,1290,1127,1290L1127,1290L1127,1290z M1183.5,1294.4c-14.1-1.1-28.2-2.2-42.2-3.4     c-0.7,0-1.2,0-1.8,0c-0.5,0-1,0.1-1.4,0.2c-0.4,0.1-0.9,0.2-1.3,0.3c-0.3,0.1-0.5,0.3-0.8,0.4c-4.7,4.3-9.3,8.7-14,13     c-0.1,0.2-0.3,0.3-0.1,0.5c-0.1,0.2,0.1,0.3,0.3,0.5c0.4,0.1,0.8,0.3,1.2,0.4c0.4,0.1,0.9,0.2,1.4,0.2c14.4,1.2,28.6,2.3,43,3.5     c0.7,0,1.3,0,1.8,0c0.5,0,1-0.1,1.4-0.2c0.7-0.1,0.9-0.2,1.3-0.3c0.3-0.2,0.8-0.3,0.9-0.5c4.3-4.3,8.8-8.7,13.2-13     c0.1-0.2,0.3-0.4,0.1-0.5c0-0.2-0.1-0.3-0.4-0.5c-0.3-0.1-0.5-0.3-1-0.4C1184.7,1294.6,1184.1,1294.5,1183.5,1294.4     L1183.5,1294.4L1183.5,1294.4z M1239.8,1299c-14-1.1-28-2.2-42.1-3.4c-0.6-0.1-1.2,0-1.6,0c-0.7,0-1.2,0.1-1.6,0.2     c-0.5,0.1-1,0.2-1.3,0.3c-0.4,0.2-0.8,0.3-0.9,0.5c-4.4,4.4-8.8,8.7-13.1,13c-0.1,0.2-0.3,0.4-0.3,0.5c0.1,0.1,0.3,0.3,0.5,0.5     c0.3,0.1,0.7,0.3,1,0.4c0.5,0.1,0.9,0.2,1.4,0.2c14.2,1.2,28.6,2.3,43,3.5c0.4,0,0.9,0,1.4,0c0.7,0,1.3-0.1,1.7-0.2     c0.4-0.1,0.9-0.2,1.3-0.3c0.4-0.2,0.7-0.3,0.7-0.5c4.2-4.4,8.4-8.7,12.5-13.1c0.1-0.2,0.3-0.3,0.3-0.5c-0.1-0.1-0.4-0.3-0.7-0.4     c-0.1-0.1-0.5-0.3-0.9-0.4C1240.9,1299.1,1240.3,1299,1239.8,1299L1239.8,1299L1239.8,1299z M1295.8,1303.5L1295.8,1303.5     c0.7,0.1,1.2,0.1,1.6,0.2c0.5,0.1,0.8,0.2,1,0.4c0.3,0.1,0.4,0.3,0.5,0.5c0,0.2-0.1,0.3-0.3,0.5c-3.8,4.4-7.7,8.8-11.6,13.2     c-0.1,0.2-0.4,0.3-0.8,0.5c-0.4,0.1-0.7,0.2-1.2,0.3c-0.5,0.1-1,0.1-1.7,0.2c-0.4,0-0.9,0-1.6,0c-14.2-1.1-28.4-2.3-42.5-3.5     c-0.7,0-1-0.1-1.4-0.2c-0.5-0.1-0.8-0.2-1.3-0.4c0-0.2-0.3-0.3-0.4-0.5c0-0.2,0.1-0.4,0.1-0.5c4.2-4.4,8.2-8.7,12.4-13.1     c0.3-0.2,0.5-0.4,0.9-0.5c0.3-0.1,0.7-0.2,1.2-0.3c0.4,0,0.9-0.1,1.6-0.2c0.5,0,0.9,0,1.6,0     C1267.9,1301.2,1281.9,1302.3,1295.8,1303.5L1295.8,1303.5z M1351.6,1308L1351.6,1308c0.5,0,1,0.1,1.4,0.2c0.4,0.1,0.7,0.2,1,0.4     c0.1,0.1,0.4,0.3,0.4,0.5c0.3,0.1,0.3,0.3,0,0.5c-3.7,4.5-7.5,8.9-11.1,13.3c0.1,0.2-0.3,0.3-0.5,0.5c-0.4,0.2-0.8,0.3-1.3,0.4     c-0.4,0.1-0.9,0.1-1.4,0.2c-0.7,0-1,0-1.7,0c-14.4-1.1-28.2-2.3-42.5-3.5c-0.5,0-0.9-0.1-1.3-0.2c-0.5-0.1-0.8-0.2-1-0.4     c-0.3-0.1-0.4-0.3-0.5-0.5c0-0.2-0.1-0.3,0.1-0.5c3.7-4.4,7.7-8.8,11.6-13.2c0-0.2,0.4-0.3,0.7-0.4c0.4-0.2,0.8-0.3,1.2-0.3     c0.5-0.1,1-0.1,1.6-0.2c0.5,0,1,0,1.6,0C1323.7,1305.8,1337.6,1306.9,1351.6,1308L1351.6,1308z M1488.6,1319.2L1488.6,1319.2     c0.6,0,1,0.1,1.6,0.2c0.4,0.1,0.8,0.2,1,0.4c0.3,0.1,0.4,0.3,0.4,0.5c0.3,0.2,0.1,0.4-0.1,0.5c-2.9,4.5-6,9-9,13.5     c-0.1,0.2-0.3,0.4-0.5,0.5c-0.4,0.2-0.8,0.3-1.3,0.4c-0.4,0.1-0.9,0.1-1.3,0.2c-0.5,0.1-1.2,0-1.8,0c-23.3-1.9-46.8-3.9-70.1-5.8     c-0.8-0.1-1-0.2-1.6-0.3c-0.4-0.1-0.7-0.2-0.9-0.4c-0.4-0.1-0.5-0.3-0.5-0.5c-0.1-0.2-0.1-0.4,0-0.6c3.3-4.4,6.8-8.9,10.3-13.4     c0-0.2,0-0.3,0.5-0.5c0.3-0.1,0.8-0.2,1.2-0.3c0.5-0.1,0.8-0.1,1.4-0.2c0.5,0,1,0,1.7,0     C1442.6,1315.5,1465.6,1317.4,1488.6,1319.2L1488.6,1319.2z M1406.9,1312.5L1406.9,1312.5c0.7,0.1,1,0.1,1.6,0.2     c0.4,0.1,0.8,0.2,1,0.4c0.3,0.1,0.5,0.3,0.4,0.5c0.1,0.2,0.3,0.3,0,0.5c-3.4,4.5-6.8,9-10.2,13.4c-0.3,0.2-0.4,0.4-0.6,0.5     c-0.3,0.2-0.8,0.3-1.3,0.4c-0.4,0.1-0.9,0.1-1.4,0.2c-0.5,0.1-1.2,0-1.7,0c-14.1-1.1-28.1-2.3-42.1-3.4c-0.5-0.1-1-0.2-1.4-0.3     c-0.5-0.1-0.8-0.2-1-0.4c-0.3-0.1-0.4-0.3-0.7-0.5c0-0.2,0.1-0.4,0.3-0.6c3.5-4.4,7.2-8.9,10.8-13.3c0.1-0.2,0.5-0.4,0.8-0.5     c0.3-0.1,0.7-0.2,1-0.3c0.5-0.1,1-0.1,1.6-0.2c0.5,0,1,0,1.6,0C1379.3,1310.3,1393,1311.4,1406.9,1312.5L1406.9,1312.5z      M741,1249L741,1249c0.5,0.1,1,0.1,1.6,0.2c0.3,0.1,0.5,0.2,0.8,0.4c0.3,0.1,0.4,0.3,0.4,0.4c-0.1,0.2-0.1,0.3-0.4,0.5     c-3.5,2.1-6.8,4.2-10.2,6.3c-0.1,0.2-0.5,0.3-0.9,0.4c-0.5,0.1-0.9,0.2-1.6,0.3c-0.7,0.1-1.2,0.1-1.8,0.2c-0.5,0-1.2,0-1.7,0     c-16.2-1.2-32.5-2.4-48.8-3.7l0,0l0,0l0,0l0,0c-0.5-0.1-0.9-0.1-1.4-0.2c-0.4-0.1-0.7-0.2-0.9-0.3c-0.3-0.1-0.3-0.3-0.3-0.4     c0-0.2,0.1-0.3,0.4-0.5c3.5-2.1,7.1-4.1,10.6-6.2c0.3-0.2,0.5-0.3,1-0.4c0.5-0.1,1-0.2,1.4-0.3c0.5-0.1,1.3-0.2,1.8-0.2     c0.7,0,1.2,0,1.7,0C708.9,1246.6,725.1,1247.8,741,1249L741,1249z M926.4,1263c-15.7-1.2-31.5-2.4-47.3-3.6c-0.7,0-1.2,0-1.8,0     c-0.5,0-1,0.1-1.6,0.2c-0.5,0.1-1,0.2-1.4,0.3c-0.4,0.1-0.8,0.3-0.9,0.4c-3,2.1-6.1,4.3-9.1,6.4c-0.3,0.2-0.3,0.3-0.4,0.5     c0,0.2,0.3,0.3,0.4,0.4c0.3,0.1,0.5,0.2,1,0.3c0.3,0.1,0.8,0.2,1.4,0.2c15.9,1.2,31.8,2.5,47.7,3.7c0.7,0,1.3,0,1.8,0     c0.7,0,1.2-0.1,1.7-0.2c0.5-0.1,0.9-0.2,1.3-0.3c0.4-0.1,0.7-0.3,1-0.4c2.9-2.1,5.6-4.2,8.6-6.4c0.3-0.2,0.4-0.3,0.4-0.5     c-0.1-0.1-0.1-0.3-0.4-0.4c-0.3-0.1-0.6-0.2-0.9-0.3C927.4,1263.1,926.9,1263,926.4,1263L926.4,1263L926.4,1263z M987.4,1267.7     L987.4,1267.7c0.7,0,1.2,0.1,1.4,0.2c0.6,0.1,0.9,0.2,1.2,0.3c0.1,0.1,0.3,0.3,0.4,0.4c-0.1,0.2-0.1,0.3-0.3,0.5     c-2.7,2.2-5.5,4.3-8.4,6.5c-0.1,0.2-0.5,0.3-0.8,0.4c-0.5,0.1-1,0.2-1.4,0.3c-0.5,0.1-1,0.1-1.7,0.2c-0.5,0-1.2,0-1.6-0.1     c-15.9-1.2-31.9-2.4-47.7-3.7c-0.7-0.1-1.2-0.1-1.6-0.2c-0.3-0.1-0.7-0.2-0.9-0.3c-0.3-0.1-0.3-0.3-0.4-0.4     c0-0.2,0.1-0.3,0.4-0.5c2.9-2.1,5.6-4.2,8.6-6.4c0.3-0.2,0.7-0.3,0.9-0.4c0.4-0.1,0.9-0.2,1.4-0.3c0.4,0,1-0.1,1.6-0.1     c0.7,0,1.2,0,1.8,0C956.1,1265.3,971.7,1266.5,987.4,1267.7L987.4,1267.7z M1048.3,1272.4c-15.6-1.2-31.2-2.4-46.9-3.6     c-0.5-0.1-1.2-0.1-1.7-0.1c-0.7,0.1-1.2,0.1-1.6,0.2c-0.4,0.1-0.9,0.2-1.3,0.3c-0.4,0.1-0.8,0.3-0.9,0.4     c-2.7,2.2-5.5,4.3-8.2,6.4c-0.1,0.2-0.3,0.4-0.3,0.5c0,0.2,0.1,0.3,0.4,0.5c0.3,0.1,0.5,0.2,1,0.3c0.3,0.1,0.8,0.2,1.4,0.2     c15.7,1.2,31.6,2.5,47.3,3.7c0.5,0.1,1.2,0.1,1.7,0c0.5,0,1.2-0.1,1.6-0.1c0.5-0.1,0.9-0.2,1.3-0.3c0.5-0.1,0.8-0.3,0.9-0.4     c2.5-2.2,5.1-4.3,7.8-6.5c0.1-0.2,0.3-0.3,0.3-0.5c-0.1-0.1-0.1-0.3-0.4-0.4c-0.4-0.1-0.7-0.2-1-0.3     C1049.5,1272.5,1048.9,1272.4,1048.3,1272.4L1048.3,1272.4L1048.3,1272.4z M1108.7,1277.1L1108.7,1277.1c0.5,0.1,1,0.1,1.6,0.2     c0.3,0.1,0.7,0.2,0.9,0.3c0.3,0.1,0.4,0.3,0.4,0.4c0.1,0.2,0,0.3-0.1,0.5c-2.5,2.2-5,4.4-7.5,6.6c-0.3,0.2-0.5,0.3-0.8,0.4     c-0.4,0.1-0.8,0.2-1.4,0.3c-0.4,0.1-0.9,0.1-1.4,0.2c-0.5,0.1-1.2,0-1.7,0c-15.7-1.2-31.4-2.4-47.1-3.7c-0.7-0.1-1.2-0.1-1.4-0.2     c-0.5-0.1-0.8-0.2-1-0.4c-0.3-0.1-0.4-0.3-0.4-0.4c0-0.1,0-0.3,0.1-0.5c2.6-2.2,5.2-4.3,7.8-6.5c0.3-0.2,0.5-0.3,0.9-0.4     c0.3-0.1,0.9-0.2,1.3-0.3c0.4-0.1,0.9-0.1,1.4-0.2c0.7,0,1.2,0,1.8,0C1077.6,1274.7,1093.2,1275.9,1108.7,1277.1L1108.7,1277.1z      M1168.9,1281.8L1168.9,1281.8c0.7,0,1.2,0.1,1.4,0.2c0.5,0.1,0.8,0.2,1,0.3c0.3,0.1,0.4,0.3,0.4,0.4c0.1,0.2,0,0.3-0.1,0.5     c-2.4,2.2-4.7,4.4-6.9,6.6c-0.3,0.2-0.5,0.3-0.8,0.5c-0.4,0.1-0.8,0.2-1.3,0.3c-0.5,0.1-1,0.1-1.6,0.2c-0.5,0-1.2,0-1.6,0     c-15.8-1.2-31.4-2.4-46.9-3.7c-0.6-0.1-1-0.1-1.6-0.2c-0.4-0.1-0.7-0.2-0.8-0.4c-0.4-0.1-0.5-0.3-0.5-0.4c-0.1-0.2,0-0.3,0.1-0.5     c2.4-2.2,4.8-4.4,7.3-6.6c0.3-0.2,0.5-0.3,1-0.4c0.3-0.1,0.5-0.2,1.2-0.3c0.5-0.1,1-0.1,1.6-0.2c0.5,0,1.2,0,1.6,0     C1138,1279.4,1153.4,1280.6,1168.9,1281.8L1168.9,1281.8z M1228.7,1286.6L1228.7,1286.6c0.5,0.1,0.9,0.1,1.4,0.2     c0.4,0.1,0.7,0.2,0.9,0.3c0.1,0.1,0.4,0.3,0.5,0.5c0,0.2-0.1,0.3-0.3,0.5c-2.2,2.2-4.2,4.4-6.4,6.7c-0.1,0.2-0.4,0.3-0.8,0.5     c-0.5,0.1-0.9,0.2-1.3,0.3c-0.4,0.1-0.9,0.1-1.4,0.2c-0.5,0-1.2,0-1.7,0c-15.4-1.2-31-2.5-46.5-3.7c-0.7,0-1-0.1-1.6-0.2     c-0.3-0.1-0.7-0.2-1-0.3c-0.1-0.1-0.4-0.3-0.3-0.5c0-0.2,0-0.3,0.1-0.5c2.4-2.2,4.6-4.4,6.9-6.6c0.1-0.2,0.4-0.3,0.8-0.4     c0.3-0.2,0.7-0.2,1.2-0.3c0.5-0.1,1-0.1,1.6-0.2c0.5,0,1.2,0,1.7,0.1C1197.9,1284.1,1213.3,1285.4,1228.7,1286.6L1228.7,1286.6z      M1288.1,1291.3c0.7,0.1,1,0.1,1.6,0.2c0.3,0.1,0.7,0.2,0.9,0.3c0.3,0.1,0.4,0.3,0.4,0.5c0.1,0.1,0,0.3,0,0.5     c-2,2.2-4.1,4.5-6.1,6.7c-0.1,0.2-0.5,0.3-0.8,0.4c-0.3,0.1-0.7,0.2-1.3,0.3c-0.4,0.1-0.9,0.1-1.3,0.2c-0.7,0-1.2,0-1.8,0     c-15.4-1.2-30.7-2.5-46.1-3.7c-0.7,0-1-0.1-1.6-0.2c-0.4-0.1-0.7-0.2-0.9-0.3c-0.3-0.1-0.4-0.3-0.5-0.5c0-0.2,0.1-0.3,0.3-0.5     c2.1-2.2,4.2-4.4,6.4-6.7c0.3-0.2,0.5-0.3,0.8-0.4c0.3-0.1,0.8-0.2,1.3-0.3c0.4-0.1,0.8-0.1,1.3-0.2c0.7,0,1.2,0,1.8,0     C1257.5,1288.9,1272.8,1290.1,1288.1,1291.3L1288.1,1291.3z M1347.3,1296L1347.3,1296c0.4,0.1,0.9,0.1,1.4,0.2     c0.3,0.1,0.8,0.2,1,0.4c0.1,0.1,0.4,0.3,0.4,0.4c0,0.2,0.1,0.3-0.1,0.5c-2,2.2-3.8,4.5-5.6,6.7c-0.3,0.2-0.4,0.4-0.7,0.5     c-0.4,0.1-0.9,0.3-1.3,0.3c-0.4,0.1-1,0.1-1.4,0.2c-0.7,0-1,0-1.7,0c-15.4-1.2-30.7-2.5-46-3.7c-0.7,0-1-0.1-1.4-0.2     c-0.4-0.1-0.8-0.2-1-0.3c-0.3-0.1-0.5-0.3-0.5-0.5c0-0.2,0-0.3,0.3-0.5c1.8-2.2,3.9-4.4,6-6.7c0.1-0.2,0.4-0.4,0.8-0.5     c0.3-0.1,0.8-0.3,1.2-0.3c0.4-0.1,0.9-0.1,1.4-0.2c0.5,0,1,0,1.7,0.1C1316.8,1293.6,1332,1294.9,1347.3,1296z" clip-rule="evenodd"/><g><path fill="#a0795f" fill-rule="evenodd" d="M512.7,1274.8H401.8c-4,0-7.2,3.2-7.2,7.2v0c0,4,3.2,7.2,7.2,7.2h110.9c4,0,7.2-3.2,7.2-7.2v0     C520,1278,516.7,1274.8,512.7,1274.8z" clip-rule="evenodd"/><path fill="#d1a586" fill-rule="evenodd" d="M408.5,1411.3c5.3-5.3,12.6-8.6,20.7-8.6h19.1h37.2c8.1,0,15.4,3.3,20.7,8.6c5.3,5.3,8.6,12.6,8.6,20.7v5.9     h2.3v7.3h-2.3h-12.1h-2.3v-7.3h2.3v-5.9c0-4.7-1.9-9-5-12.1c-3.1-3.1-7.4-5-12.1-5h-37.2h-19.1c-4.7,0-9,1.9-12.1,5     c-3.1,3.1-5,7.4-5,12.1v5.9h2.3v7.3H412h-12.1h-2.3v-7.3h2.3v-5.9C399.9,1423.9,403.2,1416.6,408.5,1411.3z" clip-rule="evenodd"/><rect width="12.1" height="113.5" x="451.2" y="1289.2" fill="#d1a586" fill-rule="evenodd" clip-rule="evenodd"/><path fill="#3b5bb3" fill-rule="evenodd" d="M611.7,1428.3c-19.9-72.2-27-123-21.4-152.2c-11.3,1.6-22.7,2.1-34.1,1.5c1.7-7.8,3.5-15.6,5.3-23.6     c-0.2-10.8-17.2-23.5-36.7-29.2c28.4,2.2,96.7-5.8,105.5,27.3c2.2,28.3-3.7,60.6,1.3,176.4     C625.3,1429.2,618.7,1429.1,611.7,1428.3z" clip-rule="evenodd"/><path fill="#4567c6" fill-rule="evenodd" d="M428.6,1272c-23.4-8.4-26.5-31.7-16.3-66.8c8.4,6.9,29.8,9.8,64,8.7l-0.8,3c0,0.1-0.1,0.3-0.1,0.4h-38.1     c0.1,5.8-0.1,11.8,8.5,12.2c27.3-4.1,126.8-18.2,128.5,24.5c-12.4,55.2-23.3,105.8-38.3,175.8c-5,2.8-12,2.6-20.7-0.6     c-7-67.8-5.1-117.2,5.8-148C492.2,1281.3,461.3,1277.3,428.6,1272z" clip-rule="evenodd"/><path fill="#3b5bb3" fill-rule="evenodd" d="M428.6,1272c-23.4-8.4-26.5-31.7-16.3-66.8c1.8,1.5,4.2,2.8,7.1,3.9c-8.5,36.1,0.7,55.9,28.2,57.8     c32,4.8,58.6,7,79.7,6.9c-9.3,60.2-10.9,112.7-4.8,157.5c-2.3-0.4-4.7-1.1-7.3-2.1c-7-67.8-5.1-117.2,5.8-148     C492.2,1281.3,461.3,1277.3,428.6,1272z" clip-rule="evenodd"/><path fill="#284191" fill-rule="evenodd" d="M499.8,1024.5c-23.8,8.6-39.1,9.5-45.9,2.5c-6.9-1.6-11.3-7.7-13.4-18.2c-7.1-16.1-1-41.8,8.9-29.1     c8.2-21.1,41.4-8.9,60-20.6c11.3,7.4,7,25.7-1.1,31.9C508.7,1012.1,507.6,1023.3,499.8,1024.5z" clip-rule="evenodd"/><path fill="#284191" fill-rule="evenodd" d="M444.1,982c2.6-2,3.4-4.2,2.5-6.5c-4-2.2-7.7-2.3-11.3-0.2C437.5,975.4,440.4,977.7,444.1,982z" clip-rule="evenodd"/><path fill="#284191" fill-rule="evenodd" d="M449,976.5c-1.8,2.1-3.5,2.5-5,1.4c-0.9-3.9-0.4-7.3,1.7-10.2C445.4,969.6,446.5,972.6,449,976.5z" clip-rule="evenodd"/><path fill="#284191" fill-rule="evenodd" d="M461.6,985.3c-4.5-1.8-7.9-1.2-10.2,1.8c0.2,6.7,3.7,20.3,9,23.2C461.4,1009.6,461.2,995.4,461.6,985.3z" clip-rule="evenodd"/><path fill="#284191" fill-rule="evenodd" d="M463.3,978.8c-7.6,3.7-10.1,7-7.5,10c11.5,1.7,22.4,0.5,32.9-3.7C482.4,985.6,473.9,983.5,463.3,978.8z" clip-rule="evenodd"/><path fill="#284191" fill-rule="evenodd" d="M507.8,990.1c-8.6-8.7-24.8-9.7-47.1-1.6c-14.1-3.5-17.3-10-11.3-20.7c8.4-15,26.7-3.1,49.1-17.3     C497.6,961.6,530.9,971,507.8,990.1z" clip-rule="evenodd"/><path fill="#ffb27d" fill-rule="evenodd" d="M454.1,997.5c5.9-1.3,5.4,10.9,4.9,16.9C458.2,1026.3,444.8,999.5,454.1,997.5z" clip-rule="evenodd"/><path fill="#284191" fill-rule="evenodd" d="M502.9,983.1c-19.3-2.5-33.9-1.2-40.1,8.1c0.8,5.6,2.5,13,5.1,22c-1.1,2.2-2.8,3.3-5,3.4     c-2.7-5.4-5-8.6-6.9-9.6c-9.2,4.1-7.5,10.5,5.2,19.1c0.7,3,1.5,5.4,2.1,7.4c-11.4-2.5-20.9-12.7-22.2-17.1     c-13.3-26.2,1.5-37.2,9.5-41.2c3.5-25.9,41.1-3,60-15.5C518.1,969.9,508.8,982.8,502.9,983.1z" clip-rule="evenodd"/><path fill="#284191" fill-rule="evenodd" d="M500.2,976.7c2.9,2.2,3.8,4.7,2.8,7.4c-4.5,2.5-8.7,2.6-12.7,0.2C492.7,984.1,496,981.6,500.2,976.7z" clip-rule="evenodd"/><path fill="#ffb27d" fill-rule="evenodd" d="M448.3,1049.8c3.3,0.2,6.6-3.9,7.5-5.2c3.6-4.7,5.8-10.3,6.7-13.4c-0.7-2.1-1.4-4.7-2.2-7.9     c-12.9-9.2-14.6-16-5.3-20.4c1.9,1.1,4.2,4.5,7,10.3c2.2-0.1,3.9-1.3,5.1-3.6c-2.7-9.7-4.4-17.5-5.2-23.5     c6.3-9.9,21.2-11.3,40.8-8.6c0.9,5.5,1.7,11.3,2.2,17.4c2.4,2.4,9.6,41.9-14.6,43.5c-0.1,2,0.1,4.2,0.1,5.6     c0,1.2,0.1,3.7,1.3,4.1l2.1,0.5C493.8,1077.9,479.5,1083.5,448.3,1049.8z" clip-rule="evenodd"/><path fill="#284191" fill-rule="evenodd" d="M502.8,977.5c-19.6-2.7-34.5-1.3-40.8,8.6c0.8,6,2.5,13.9,5.2,23.5c-1.2,2.3-2.8,3.5-5.1,3.6     c-2.8-5.7-5.1-9.1-7-10.3c-9.4,4.4-7.6,11.2,5.3,20.4c0.8,3.2,1.5,5.8,2.2,7.9c-11.6-2.7-21.3-13.6-22.6-18.3     c-13.5-28,1.6-39.8,9.6-44.1c3.6-27.7,42-3.7,52.1-20.6C522.8,960.9,508.8,977.3,502.8,977.5z" clip-rule="evenodd"/><path fill="#f08261" fill-rule="evenodd" d="M477.6,1035.6c3.1,1.6,7.4,2.6,12.9,2.8c-0.1,1.9,0,4.2,0.1,5.6C485.1,1042.9,480.8,1040.1,477.6,1035.6z" clip-rule="evenodd"/><path fill="#61a0e0" fill-rule="evenodd" d="M519.9,1053.1c-10.7-3.3-20.4-5.2-28.9-5.9c-1.5,24.7-13.8,24.6-36.9-0.5c-22.2,2-26.5,2.3-38.9,6.4     c-26.6,26.7-29.1,57.5-43,92.8c15.4,0.7,22.3,2.7,32.8,6.6c2.3-8.4,4.1-15.2,5.7-20.4c-0.4,46.5-0.6,78.3-0.5,95.5     c20.8,5.7,11.6,8.8,38.5,3.3c31.6-6.5,51.4-0.8,64.6-6.8c0.2-41.3,7.6-73,8-97.1c6.1,7.5,11.8,13.4,17,17.5     c12.5-15,21-21.1,28.1-30C550.7,1087.5,528.2,1062.3,519.9,1053.1z" clip-rule="evenodd"/><path fill="#ffb27d" fill-rule="evenodd" d="M622.7,1098.4c-26.8,11.7-45.5,21.3-56.3,29l-4.8-7.4c-4.4,4.7-9.5,9.2-15.7,15.9     c5.7,6.3,11.8,11.4,19,15.8c18.6-2.1,39.2-16.9,61.7-44.4c7-1.5,12.2-4.1,15.5-8c0.2-3.5-1.5-7.1-5.1-10.7     c9.3-6.4,13.1-11,11.2-13.7C633.6,1084.3,625.1,1092.2,622.7,1098.4z" clip-rule="evenodd"/><path fill="#4f8ecc" fill-rule="evenodd" d="M418.1,1180.4c-2.7,0.4-5.3,0.8-7.7,1.1c-0.1,20.5-3.5,34.8-3.5,45c2.4,1.1,9.2,3.5,11.8,3.8     c0-1.3-0.4-4.4-0.4-5.7C418.1,1209.1,418,1194.3,418.1,1180.4L418.1,1180.4z M542.8,1139.4c-7.5-6.6-14.7-17.2-21.4-32     c0.8,5.1,1.1,12,0.9,20.6c5.8,7,11.1,12.5,16.1,16.5C539.9,1142.7,541.3,1141,542.8,1139.4L542.8,1139.4z M420.2,1099.4     c-3.3,11.2-6.5,22.1-9.5,32.7c-0.1,9-0.2,17.4-0.2,25.3c2.2-0.2,4.7-0.4,7.8-0.4C418.6,1135.2,419.2,1116,420.2,1099.4z" clip-rule="evenodd"/><path fill="#ffb27d" fill-rule="evenodd" d="M377.4,1146.2c-2.4,10.3-3.4,19.8-1.5,32.3c6.1,9.2,30.5,4.1,93.5-7c2.3,2.2,6.9,4.3,14,3.4     c6.6-1.7,6.9-3.5,14.3-10.8c1.8-5.7,1.4-10-1.1-13c-8.3,5.1-12.7,7.9-22.1,8.2c2.5-6.7,2.9-11.1,1.1-13     c-3.2,2.7-5.3,6.7-6.2,12.1c-49.6-2.3-62.7-2-69.3,1.7c0.7-3.3,1.3-6.1,1.9-8.6C394.3,1148.6,388,1147,377.4,1146.2z" clip-rule="evenodd"/><path fill="#284191" fill-rule="evenodd" d="M499.9,969.2c4.1,3.2,5.4,6.6,4,10.4c-6.3,3.5-12.3,3.6-18,0.3C489.4,979.7,494.1,976.1,499.9,969.2z" clip-rule="evenodd"/><path fill="#284191" fill-rule="evenodd" d="M468.5,977.1c-4.7-2.1-8.4-1.6-11,1.5c-0.1,7.2,2.7,12.5,8.3,15.9C464.3,991.4,465.2,985.6,468.5,977.1z" clip-rule="evenodd"/><path fill="#4f8ecc" fill-rule="evenodd" d="M494,1047.5c-1.2,13.6-6.6,20.2-13.9,20.1c-6.7-0.1-17.1-7.7-28.7-20.7l3.7-1.3     c10.8,12.2,19.5,18.2,25,18.3c5,0.1,9.8-5.7,10.8-17L494,1047.5z" clip-rule="evenodd"/><path fill="#4f8ecc" fill-rule="evenodd" d="M482.3,1066.4c3.8,0.8,6.3,3.9,5.7,7c-0.6,3.1-4.2,5-8,4.2c-3.8-0.8-6.3-3.9-5.7-7     C475,1067.5,478.6,1065.7,482.3,1066.4z" clip-rule="evenodd"/><path fill="#4f8ecc" fill-rule="evenodd" d="M481.8,1078.8c2.6,0.2,4.6,2,4.5,4.2c-0.1,2.1-2.4,3.7-5,3.6c-2.6-0.2-4.6-2-4.5-4.2     C477,1080.2,479.2,1078.6,481.8,1078.8z" clip-rule="evenodd"/><path fill="#163560" fill-rule="evenodd" d="M657.2,1453.8c-21.7-0.3-37.9-0.6-45.3-3c-8.1-2.5-6.4-7.5-1.8-15.3c20.4,9.4,15-1.9,24.5-0.5     c6.7,5.4,16.7,9,29.8,10.9C670,1449.9,667.7,1453.6,657.2,1453.8z" clip-rule="evenodd"/><path fill="#4567c6" fill-rule="evenodd" d="M590.9,1229.5h0.9c16.3,0.1,33.1,4.1,38.5,22.6c2.2,28.3-3.7,60.6,1.3,176.4c-3.7,0.4-7.6,0.5-11.6,0.4     c-10.3-40.3-34.8-139-7.2-181.5C606.3,1240.5,599,1234.6,590.9,1229.5z" clip-rule="evenodd"/><path fill="#ffb27d" fill-rule="evenodd" d="M629.4,1428.7c0.6,2.2,1.5,4.2,2.8,6.1c-6.3,0.6-3.8,8.6-20.7,1.3c0.7-2.1,1.1-4.7,1.2-7.7     C618.6,1429,624.1,1429.1,629.4,1428.7z" clip-rule="evenodd"/><path fill="#163560" fill-rule="evenodd" d="M535.9,1466.4c-11.5-4.7-13.2-12.5-19.6-15.4c-6.4-3-7.1-8.3-0.9-14c4.6,3.7,10.3,8.2,13.3,5.8     c2-1.6,8.9-1.5,10.2,0.8c6,13.9,14.3,9.5,15.9,15.8C555.1,1467.8,543.2,1469.4,535.9,1466.4z" clip-rule="evenodd"/><path fill="#ffb27d" fill-rule="evenodd" d="M534,1430.8c-0.1,3.7,0.4,7.4,1.5,11.1c-2.5-0.4-5.4,0-6.6,0.9c-2.8,2.2-7.9-1.5-12.3-5     c0.7-2,1.2-4.6,1.4-7.7C524.4,1432.1,529.7,1432.3,534,1430.8z" clip-rule="evenodd"/><g><path fill="#a4d0fc" fill-rule="evenodd" d="M627.6,1139H504.6c-2.4,0-4.9,2-5.6,4.4l-21.9,83.3c-0.6,2.4,0.8,4.4,3.2,4.4h122.9c2.4,0,4.9-2,5.6-4.4     l21.9-83.3C631.4,1141,630,1139,627.6,1139z" clip-rule="evenodd"/><path fill="#c3dffa" fill-rule="evenodd" d="M481.6,1197.9l14.8-56.5c0.6-2.4,3.1-4.4,5.6-4.4h8.5h114.4c2.4,0,6.7,3.1,6,5.5c0.1-2-1.3-3.5-3.4-3.5     H504.6c-2.4,0-4.9,2-5.6,4.4l-21.9,83.3c-0.4,1.5,0,2.7,0.9,3.6c-2-1.3-4-3.8-3.5-5.6L481.6,1197.9z" clip-rule="evenodd"/><path fill="#a4d0fc" fill-rule="evenodd" d="M480.5,1231.1h122.9c0.5,0,0.9-0.1,1.4-0.2c-2.4,6.3-9.1,5.4-11.7,5.4H447.3c-7.9-0.3-7.7-5.9-7.8-11.2h35     c-0.1,1.7,1.7,4,3.6,5.2C478.7,1230.8,479.5,1231.1,480.5,1231.1z" clip-rule="evenodd"/><path fill="#61a0e0" fill-rule="evenodd" d="M497.7,1173.2c13.2,6.7,28.8,8.7,44.8,9.5c-0.2,0.6-0.3,1.2-0.4,1.8c-1.1,6.8,3.7,12.5,10.6,12.5     c6.5,0,12.4-5.1,13.4-11.5c0.1-0.7,0.2-1.4,0.1-2c16.6,0.4,32.7,1.4,46,6.6l-9.1,34.8H484.1L497.7,1173.2z" clip-rule="evenodd"/><path fill="#61a0e0" fill-rule="evenodd" d="M555.3,1177.1c-4.4,0-8.5,3.6-9.2,8c-0.7,4.4,2.3,8,6.7,8c4.4,0,8.5-3.6,9.2-8     C562.7,1180.6,559.7,1177.1,555.3,1177.1z" clip-rule="evenodd"/></g></g><g><path fill="#fff" fill-rule="evenodd" d="M828.6,547.5l553.6,24.6c1.9,0.1,3.7,0.5,5.5,1.2l1,0.5c5.3,2.7,8.7,7.9,8.7,13.8l0,624    c-0.3,8.4-7.1,15.1-15.5,14.9l-553.4-20.6c-8.4-0.3-15.5-6.9-15.5-15.5V563.1l0.2-2.4c0.6-3.7,2.4-7,5.2-9.5l1.4-1.1l0.1-0.1    l0.4-0.3l0.3-0.2l0.5-0.3l0.2-0.1l0.5-0.2l0.8-0.4l0.7-0.3l1-0.3l0.4-0.1l0.2,0l1.8-0.3C827.4,547.5,827.9,547.5,828.6,547.5z" clip-rule="evenodd"/><path fill="#a4d0fc" fill-rule="evenodd" d="M814.5,604.1l581.5,23.4v-39.8c0-7.7-6.3-13.7-14.1-14.1L828.6,549c-7.7-0.3-14.1,6.3-14.1,14.1V604.1z" clip-rule="evenodd"/><path fill="#61a0e0" fill-rule="evenodd" d="M816,602.7l37.3,1.5c-0.2,1-0.2,2,0.1,2.9l-37.5-1.5v584.9c0,7,5.8,12.3,12.6,12.6l553.8,20.6v0    c6.9,0,12-5.9,12.1-12.6h0V628.9l-23.6-1c0.5-0.9,0.8-1.9,0.7-2.9l22.8,0.9l0-39.4h0l0-0.3l0,0l-0.1-0.6h0    c-0.1-0.5-0.2-0.9-0.3-1.3h0l-0.2-0.7l0,0l-0.1-0.1h0l-0.2-0.4h0l-0.1-0.1h0l-0.2-0.4h0l-0.2-0.4h0c-2-3.9-5.9-6.4-10.2-6.9v0    l-555-24.7v0c-1.9,0-3.4,0.4-5.1,1.2v0l-0.5,0.3v0l-0.5,0.3v0l-0.2,0.2v0l-0.2,0.2v0l-0.2,0.2l0,0l-0.2,0.2l0,0l-0.3,0.3v0    l-1.2,1.1h0l-0.3,0.3h0c-0.3,0.4-0.6,0.7-0.9,1.1h0l-0.1,0.1h0l-0.3,0.5h0l-0.1,0.1h0l-0.3,0.5h0l-0.3,0.5h0L817,558h0l-0.4,1h0    l-0.1,0.4h0l-0.3,1h0c-0.2,0.9-0.3,1.7-0.3,2.7h0V602.7L816,602.7z M1346.4,625.1V624l0.1,0    C1346.4,624.4,1346.4,624.7,1346.4,625.1L1346.4,625.1z M1322.5,626l-74.6-3c0.7-0.8,1.1-1.8,1.2-2.9l76.9,3.1    C1324.4,623.7,1323.3,624.5,1322.5,626L1322.5,626z M905.1,606.2l247.8,10c-0.3,1-0.3,2,0,2.9l-247.2-9.9    C905.7,608.1,905.6,607.2,905.1,606.2L905.1,606.2z M1388.7,573.9c5.3,2.7,8.7,7.9,8.7,13.8l0,624c-0.3,8.4-7.1,15.1-15.5,14.9    l-553.4-20.6c-8.4-0.3-15.5-6.9-15.5-15.5V563.1c0.1-0.6,0.1-1.6,0.2-2.4c0.6-3.7,2.4-7,5.2-9.5v0c0.5-0.4,0.9-0.8,1.4-1.1v0    l0.1-0.1v0l0.4-0.3v0l0.3-0.2v0l0.5-0.3v0l0.2-0.1v0l0.5-0.2v0l0.8-0.4v0l0.7-0.3v0l1-0.3v0l0.4-0.1v0l0.2,0v0    c0.6-0.1,1.2-0.2,1.8-0.3v0c0.7-0.1,1.2,0,1.9,0l553.6,24.6c1.9,0.1,3.7,0.5,5.5,1.2C1388,573.5,1388.5,573.8,1388.7,573.9z" clip-rule="evenodd"/><polygon fill="#eff9fc" fill-rule="evenodd" points="847.5 653.5 1362.2 671.7 1362.2 819.3 847.5 801.1" clip-rule="evenodd"/><polygon fill="#eff9fc" fill-rule="evenodd" points="847.5 823.8 1082.9 832.2 1082.9 979.7 847.5 971.4" clip-rule="evenodd"/><polygon fill="#eff9fc" fill-rule="evenodd" points="1126.8 833.7 1362.2 842 1362.2 989.6 1126.8 981.3" clip-rule="evenodd"/><polygon fill="#eff9fc" fill-rule="evenodd" points="847.5 989.1 1082.9 997.4 1082.9 1183.6 847.5 1175.3" clip-rule="evenodd"/><polygon fill="#eff9fc" fill-rule="evenodd" points="1126.8 998.9 1362.2 1007.2 1362.2 1193.5 1126.8 1185.1" clip-rule="evenodd"/><path fill="#fff" fill-rule="evenodd" d="M973.4,570l360.3,13.9c3.7,0.1,6.8,3.3,6.8,7v6.1c0,3.7-3,6.6-6.8,6.5l-360.3-13.9c-3.7-0.1-6.7-3.3-6.7-7    v-6.1C966.7,572.7,969.7,569.8,973.4,570L973.4,570z M911.6,566.7c5.9,0.2,10.8,5.2,10.8,11.2c0,5.9-4.8,10.6-10.8,10.4    c-5.9-0.2-10.8-5.2-10.8-11.2C900.8,571.2,905.6,566.5,911.6,566.7L911.6,566.7z M942.8,567.9c5.9,0.2,10.8,5.2,10.8,11.2    c0,5.9-4.8,10.6-10.8,10.4c-6-0.2-10.8-5.2-10.8-11.2C932.1,572.3,936.9,567.7,942.8,567.9L942.8,567.9z M880.4,565.6    c5.9,0.2,10.8,5.2,10.8,11.2c0,6-4.8,10.6-10.8,10.4c-5.9-0.2-10.8-5.2-10.8-11.2C869.6,570,874.4,565.4,880.4,565.6z" clip-rule="evenodd"/></g><g><path fill="#eff9fc" fill-rule="evenodd" d="M682.8,736l314.8,14c9.5,0.4,17.3,8.1,17.2,17.7l-2.8,356.2c-0.1,9.8-8.2,18-18.1,17.6l-312-13.3    c-9.5-0.4-17.3-8-17.3-17.7V753.6C664.7,743.8,672.8,735.5,682.8,736z" clip-rule="evenodd"/><path fill="#61a0e0" fill-rule="evenodd" d="M682.8,734.7l314.8,14c5.1,0.2,9.8,2.4,13.2,5.9c3.3,3.4,5.3,8,5.3,13.1v0l-2.8,356.2v0l0,0.6v0    c-0.2,5-2.4,9.6-5.7,12.9c-3.4,3.3-8,5.4-13,5.3h0l-0.6,0h0l-312-13.3c-5.1-0.2-9.8-2.4-13.1-5.8c-3.3-3.4-5.4-8-5.4-13.1V753.6    c0-0.2,0-0.5,0-0.8c0.2-5,2.4-9.5,5.7-12.8c3.3-3.3,7.9-5.3,12.9-5.3C682.2,734.7,682.5,734.7,682.8,734.7L682.8,734.7z     M997.5,751.2l-314.8-14c-0.2,0-0.4,0-0.7,0c-4.3,0-8.2,1.8-11.1,4.6c-2.9,2.9-4.8,6.8-4.9,11.1c0,0.2,0,0.4,0,0.7v356.9    c0,4.4,1.8,8.4,4.6,11.3c2.9,3,7,4.9,11.4,5.1l312,13.3l0.6,0c4.3,0,8.3-1.7,11.2-4.6c2.9-2.9,4.8-6.8,5-11.2l0-0.6l2.8-356.2    c0-4.4-1.7-8.4-4.6-11.4C1006.1,753.3,1002,751.4,997.5,751.2z" clip-rule="evenodd"/><path fill="#fff" fill-rule="evenodd" d="M682.3,745.6l314.8,14c4.4,0.2,8,3.6,8,8l-2.8,356.2c0,4.4-3.6,8.2-8,8l-312-13.3c-4.4-0.2-8-3.6-8-8V753.6    C674.3,749.2,677.9,745.4,682.3,745.6z" clip-rule="evenodd"/><path fill="#a4d0fc" fill-rule="evenodd" d="M674.3,776.9l330.8,13.3v-22.6c0-4.4-3.6-7.8-8-8l-314.8-14c-4.4-0.2-8,3.6-8,8V776.9z" clip-rule="evenodd"/><polygon fill="#eff9fc" fill-rule="evenodd" points="687.8 789.6 986.7 803.2 986.7 892 687.8 878.4" clip-rule="evenodd"/><polygon fill="#eff9fc" fill-rule="evenodd" points="687.8 892.1 824.5 898.3 824.5 987 687.8 980.8" clip-rule="evenodd"/><polygon fill="#eff9fc" fill-rule="evenodd" points="850 899.4 986.7 905.6 986.7 994.4 850 988.2" clip-rule="evenodd"/><polygon fill="#eff9fc" fill-rule="evenodd" points="687.8 991.4 824.5 997.6 824.5 1109.6 687.8 1103.4" clip-rule="evenodd"/><polygon fill="#eff9fc" fill-rule="evenodd" points="850 998.8 986.7 1005 986.7 1117 850 1110.8" clip-rule="evenodd"/><path fill="#fff" fill-rule="evenodd" d="M776.3,758.5l171.5,6.3c3.2,0.1,5.8,2.8,5.8,6v5.3c0,3.2-2.6,5.7-5.8,5.6l-171.5-6.3c-3.2-0.1-5.8-2.8-5.8-6    v-5.3C770.5,760.9,773.1,758.4,776.3,758.5z" clip-rule="evenodd"/><path fill="#fff" fill-rule="evenodd" d="M750,756.7c5.1,0.2,9.3,4.5,9.3,9.6c0,5.1-4.2,9.1-9.3,8.9c-5.1-0.2-9.3-4.5-9.3-9.6    C740.7,760.5,744.8,756.5,750,756.7z" clip-rule="evenodd"/><path fill="#fff" fill-rule="evenodd" d="M723.1,755.7c5.1,0.2,9.3,4.5,9.3,9.6c0,5.1-4.2,9.1-9.3,8.9c-5.1-0.2-9.3-4.5-9.3-9.6    C713.8,759.5,717.9,755.5,723.1,755.7z" clip-rule="evenodd"/><path fill="#fff" fill-rule="evenodd" d="M696.2,754.7c5.1,0.2,9.3,4.5,9.3,9.6c0,5.1-4.2,9.1-9.3,8.9c-5.1-0.2-9.3-4.5-9.3-9.6    C686.9,758.5,691,754.5,696.2,754.7z" clip-rule="evenodd"/><path fill="#61a0e0" fill-rule="evenodd" d="M675.6,775.7l168.2,6.8c-0.3,0.8-0.3,1.6-0.2,2.5l-168-6.8v70.2c-0.8-0.1-1.7,0-2.5,0.3v-95.1     c0.1-0.4,0.1-2.4,0.4-2.6c0.3-1.1,0.8-2.1,1.5-3.1l0,0l0.3-0.3h0l0.2-0.2h0l0.1-0.1h0l0.6-0.6c0.3-0.2,0.5-0.5,0.8-0.7v0l0.1-0.1     v0l0.1-0.1v0l0.1-0.1v0l0.2-0.1l0,0l0.3-0.2v0l0.1-0.1v0l0.1-0.1v0l0.3-0.2l0,0l0.1,0v0l0.1,0v0l0.1,0v0l0.1,0v0l0.1,0l0,0l0.1,0     v0l0.1,0v0l0.1,0v0l0.1,0v0l0.3-0.1l0,0l0.1,0l0,0l0.1,0v0l0.2-0.1v0l0.2-0.1l0,0l0.1,0v0l0.2,0l0,0l0.1,0v0l0.1,0v0l0.4-0.1v0     l0.1,0v0l0.1,0l0,0l0.1,0l0,0l0.4,0c-0.6,0.7-1,1.7-1,2.7l-0.1,0v0l-0.1,0v0l-0.1,0l0,0l-0.1,0v0l-0.3,0.1l0,0l-0.1,0.1v0l-0.1,0     v0l-0.1,0.1v0l-0.2,0.1v0l-0.3,0.1v0c-0.3,0.2-0.6,0.4-0.9,0.6v0l-0.8,0.7l-0.1,0.1h0l-0.1,0.1l0,0l0,0.1h0l-0.1,0.1h0l-0.1,0.1     l0,0l-0.1,0.2l0,0c-0.8,1.2-1.2,2.5-1.3,4h0V775.7L675.6,775.7z M724.6,746.2c0.3,0.8,0.5,1.7,0.3,2.5l108,4.8     c0-0.9,0.3-1.8,0.8-2.5L724.6,746.2L724.6,746.2z M967.4,757l30.1,1.3l0,0l0.1,0v0l0.2,0l0,0l0.1,0v0l0.1,0v0     c4.6,0.6,8.4,4.2,8.4,9.2v24l-0.2,0l-0.7,90.2c-0.8-0.2-1.7-0.1-2.5,0.1l0.7-90.4l-15.2-0.6c0.3-0.8,0.4-1.7,0.3-2.5l14.9,0.6     l0.2-21.3c0-1.8-0.7-3.4-1.9-4.6l0,0c-1.2-1.2-2.7-1.9-4.3-2.1v0l-0.1,0l0,0l-31-1.4C967,758.8,967.3,758,967.4,757L967.4,757z      M947.2,758.7l-1.4-0.1L947.2,758.7L947.2,758.7z M675.6,913.6V980c-0.9,0-1.7,0.2-2.5,0.7v-68     C673.8,913.2,674.7,913.5,675.6,913.6L675.6,913.6z M675.6,1090v20.6c0,3.8,3.1,6.6,6.8,6.7l138.8,5.9c-0.3,0.8-0.4,1.7-0.3,2.5     l-138.6-5.9c-2.5-0.1-4.9-1.2-6.5-2.8l0,0c-1.6-1.6-2.7-3.9-2.7-6.4v-22.4C673.7,1089,674.6,1089.6,675.6,1090L675.6,1090z      M964.4,1129.3l30.3,1.3c3.5,0,6.3-3.1,6.5-6.5l1.1-137.3c0.8,0.4,1.6,0.6,2.5,0.6l-1.1,136.5c-0.1,5.2-4,9.2-9.3,9.2l-30.5-1.3     C964.3,1130.9,964.4,1130.2,964.4,1129.3z" clip-rule="evenodd"/></g><g><path fill="#eff9fc" fill-rule="evenodd" d="M1217.8,651.3l360.5,16c10.9,0.5,19.8,9.2,19.7,20.3l-3.2,407.9c-0.1,11.2-9.4,20.6-20.7,20.1l-357.3-15.2    c-10.9-0.5-19.8-9.2-19.8-20.2V671.6C1197,660.3,1206.4,650.8,1217.8,651.3z" clip-rule="evenodd"/><path fill="#61a0e0" fill-rule="evenodd" d="M1217.8,649.9l360.5,16c5.9,0.3,11.2,2.8,15.1,6.7c3.8,3.9,6.1,9.2,6.1,15v0l-3.2,407.9v0l0,0.7v0    c-0.2,5.7-2.7,10.9-6.6,14.7c-3.9,3.8-9.1,6.1-14.9,6.1h0l-0.7,0h0l-357.3-15.2c-5.9-0.2-11.2-2.7-15-6.7c-3.8-3.9-6.1-9.1-6.1-15    V671.6c0-0.3,0-0.6,0-1c0.3-5.7,2.7-10.8,6.5-14.6c3.8-3.8,9-6.1,14.8-6.1C1217.1,649.9,1217.5,649.9,1217.8,649.9L1217.8,649.9z     M1578.1,668.8l-360.5-16c-0.2,0-0.5,0-0.8,0c-4.9,0-9.4,2-12.7,5.3c-3.3,3.3-5.4,7.8-5.7,12.7c0,0.2,0,0.5,0,0.8v408.7    c0,5.1,2,9.6,5.3,13c3.3,3.4,8,5.6,13.1,5.8l357.3,15.2l0.7,0c5,0,9.5-2,12.8-5.3c3.3-3.3,5.5-7.8,5.7-12.8l0-0.7l3.2-407.8    c0-5.1-2-9.6-5.2-13C1587.9,671.2,1583.3,669,1578.1,668.8z" clip-rule="evenodd"/><path fill="#a4d0fc" fill-rule="evenodd" d="M1208.1,698.3l378.8,15.2v-25.9c0-5-4.1-8.9-9.2-9.2l-360.5-16c-5-0.2-9.2,4.1-9.2,9.2V698.3z" clip-rule="evenodd"/><path fill="#61a0e0" fill-rule="evenodd" d="M1209.5,696.9l192.5,7.7c-0.3,0.9-0.4,1.9-0.2,2.9l-192.4-7.7v80.4c-1-0.2-2-0.1-2.9,0.3V671.6    c0.1-0.4,0.2-2.7,0.4-3c0.4-1.3,0.9-2.4,1.7-3.5h0l0.3-0.4h0l0.2-0.3h0l0.1-0.1h0l0.2-0.2h0l0.5-0.5l0,0c0.3-0.3,0.6-0.5,0.9-0.8    l0,0l0.1-0.1l0,0l0.1-0.1l0,0l0.1-0.1v0l0.2-0.1v0l0.3-0.2v0l0.1-0.1v0l0.1-0.1l0,0l0.3-0.2v0l0.1-0.1v0l0.1-0.1l0,0l0.1-0.1v0    l0.1-0.1v0l0.1,0l0,0l0.1,0v0l0.1,0v0l0.1,0v0l0.1,0v0l0.3-0.1v0l0.1,0v0l0.1,0l0,0l0.2-0.1v0l0.2-0.1v0l0.1,0v0l0.2-0.1v0l0.1,0    v0l0.1,0v0l0.5-0.1v0l0.1,0v0l0.1,0l0,0l0.1,0v0l0.4,0c-0.7,0.9-1.1,1.9-1.2,3.1l-0.1,0v0l-0.1,0v0l-0.1,0v0l-0.1,0v0l-0.3,0.1    l0,0l-0.2,0.1v0l-0.1,0l0,0l-0.2,0.1v0l-0.2,0.1v0l-0.3,0.2v0c-0.4,0.2-0.7,0.4-1,0.7v0l-0.8,0.8h0l-0.1,0.1h0l-0.1,0.1h0    l-0.1,0.1h0l-0.1,0.1h0l-0.1,0.1h0l-0.1,0.1h0l-0.2,0.2h0c-1,1.4-1.4,2.8-1.4,4.5h0V696.9L1209.5,696.9z M1265.7,663.1    c0.4,0.9,0.5,1.9,0.4,2.9l312.1,13.9v0l0.1,0v0c1.9,0.2,3.6,1,5,2.4l0,0c1.4,1.4,2.2,3.2,2.2,5.3l-0.2,24.4l-17-0.7    c0.1,1,0,2-0.4,2.9l17.4,0.7l-0.8,103.6c1-0.3,2-0.3,2.9-0.1l0.8-103.3l0.2,0v-27.4c0-5.6-4.3-9.8-9.6-10.5v0l-0.1,0l0,0l-0.1,0v0    l-0.3,0v0l-0.1,0v0L1265.7,663.1L1265.7,663.1z M1209.5,816.2v114.5c-1,0-2,0.3-2.9,0.8V815.9    C1207.6,816.3,1208.6,816.4,1209.5,816.2L1209.5,816.2z M1209.5,1056.7v23.6c0,4.3,3.6,7.5,7.8,7.7l357.5,15.2    c4.1,0,7.2-3.5,7.4-7.5l1.2-157.2c0.9,0.5,1.8,0.7,2.9,0.7l-1.2,156.3c-0.1,6-4.6,10.6-10.6,10.6l-357.3-15.2    c-2.9-0.1-5.6-1.3-7.5-3.2l0,0c-1.9-1.9-3.1-4.5-3.1-7.4v-25.7C1207.3,1055.5,1208.4,1056.3,1209.5,1056.7z" clip-rule="evenodd"/><polygon fill="#fff" fill-rule="evenodd" points="1223.5 712.8 1565.8 728.4 1565.8 830 1223.5 814.4" clip-rule="evenodd"/><polygon fill="#fff" fill-rule="evenodd" points="1409.2 840.9 1565.8 850.8 1565.8 947.2 1409.2 940.1" clip-rule="evenodd"/><polygon fill="#fff" fill-rule="evenodd" points="1380 951 1380 988.3 1380 1079.2 1223.5 1072.1 1223.5 977.9 1223.5 943.8 1223.5 832.7 1380 840.4" clip-rule="evenodd"/><polygon fill="#fff" fill-rule="evenodd" points="1409.2 952.3 1565.8 959.4 1565.8 1087.6 1409.2 1080.5" clip-rule="evenodd"/><path fill="#fff" fill-rule="evenodd" d="M1326.9,675.5l196.3,7.2c3.7,0.1,6.7,3.2,6.7,6.9v6.1c0,3.7-3,6.5-6.7,6.4l-196.3-7.2    c-3.7-0.1-6.7-3.2-6.7-6.9v-6.1C1320.3,678.2,1323.3,675.3,1326.9,675.5z" clip-rule="evenodd"/><path fill="#fff" fill-rule="evenodd" d="M1296.8,673.4c5.9,0.2,10.6,5.1,10.6,11c0,5.9-4.8,10.4-10.6,10.2c-5.9-0.2-10.6-5.1-10.6-11    C1286.2,677.8,1290.9,673.2,1296.8,673.4z" clip-rule="evenodd"/><path fill="#fff" fill-rule="evenodd" d="M1266,672.3c5.9,0.2,10.6,5.1,10.6,11c0,5.9-4.8,10.4-10.6,10.2c-5.9-0.2-10.6-5.1-10.6-11    C1255.4,676.7,1260.1,672.1,1266,672.3z" clip-rule="evenodd"/><path fill="#fff" fill-rule="evenodd" d="M1235.2,671.2c5.9,0.2,10.6,5.1,10.6,11c0,5.9-4.8,10.4-10.6,10.2c-5.9-0.2-10.6-5.1-10.6-11    C1224.6,675.5,1229.3,671,1235.2,671.2z" clip-rule="evenodd"/></g><g><path fill="#a4d0fc" fill-rule="evenodd" d="M984.3,1178.2c-3.7-3.7-3.7-9.7,0-13.4c3.7-3.7,9.7-3.7,13.4,0c25.4,25.2,51.2,41.7,75.9,50    c19.3,6.5,37.9,7.9,54.8,4.4c16.7-3.5,32-11.8,44.9-24.8c12.1-12.2,22.3-28.6,29.7-48.9l-14.2-5.7l19.4-15.6l19.5-15.6l3.7,24.9    l3.7,24.9l-14.5-5.8c-8.4,22.8-19.9,41.2-33.8,55.3c-15.6,15.7-34.1,25.8-54.5,30c-20.2,4.2-42.1,2.6-64.7-4.9    C1040.2,1223.6,1011.8,1205.5,984.3,1178.2z" clip-rule="evenodd"/><path fill="#61a0e0" fill-rule="evenodd" d="M981.4,1175.8c-2-2-3.1-4.7-3.1-7.4c0-2.7,1-5.3,3-7.4c2-2,4.7-3.1,7.4-3.1c2.7,0,5.3,1,7.4,3    c12.4,12.4,25,22.6,37.5,30.8c12.9,8.5,25.6,14.8,38.1,18.9c9.5,3.2,18.9,5.2,28,5.9c9.1,0.7,18,0.2,26.4-1.5    c8.3-1.7,16.3-4.7,23.7-8.8c7.4-4.1,14.4-9.4,20.7-15.8c6.1-6.1,11.7-13.3,16.6-21.5c4.7-7.8,8.9-16.6,12.5-26.2l-13.3-5.3    l-1.5-0.6l1.3-1l19.4-15.6l19.5-15.6l1.3-1l0.2,1.6l3.7,24.9l3.7,24.9l0.2,1.6l-1.5-0.6l-13.6-5.4c-4.1,11-8.9,20.9-14.4,29.9    c-5.8,9.4-12.2,17.7-19.3,24.8c-7.8,7.9-16.4,14.4-25.6,19.4c-9.2,5.1-19.1,8.7-29.4,10.9c-10.2,2.1-20.9,2.8-31.9,2    c-10.9-0.8-22-3.1-33.3-6.9c-14-4.7-28.2-11.7-42.5-21C1008.7,1200.6,994.9,1189.3,981.4,1175.8L981.4,1175.8z M980.2,1168.5    c0,2.2,0.8,4.4,2.5,6c13.5,13.4,27.2,24.5,40.9,33.5c14.1,9.2,28.2,16.2,42,20.8c11.2,3.7,22.2,6,32.9,6.8    c10.8,0.8,21.3,0.2,31.3-1.9c10.1-2.1,19.8-5.7,28.9-10.7c9-5,17.4-11.3,25.1-19.1c7-7,13.4-15.2,19-24.5    c5.6-9.1,10.5-19.3,14.6-30.5l0.3-0.9l0.9,0.4l13,5.2l-3.5-23.2l-3.5-23.2l-18.2,14.6l-18.2,14.6l12.7,5.1l0.9,0.3l-0.3,0.9    c-3.7,10.1-8.1,19.3-13,27.4c-5.1,8.3-10.7,15.6-16.9,21.8c-6.5,6.5-13.6,11.9-21.2,16.1c-7.6,4.2-15.8,7.2-24.3,9    c-8.6,1.8-17.6,2.3-26.9,1.6c-9.2-0.7-18.7-2.7-28.4-6c-12.6-4.2-25.5-10.6-38.5-19.2c-12.6-8.3-25.3-18.6-37.8-31.1    c-1.7-1.7-3.9-2.5-6-2.5c-2.2,0-4.4,0.8-6,2.5C981,1164.1,980.2,1166.3,980.2,1168.5z" clip-rule="evenodd"/></g><g><path fill="#a4d0fc" fill-rule="evenodd" d="M817.9,736.8l17.9-17.4l17.9-17.4l-13.6-3.8c6.1-11.8,13.3-21.7,21.3-29.8c12.9-13,28.2-21.4,44.9-24.8    c16.9-3.5,35.5-2.1,54.8,4.4c24.7,8.3,50.6,24.8,75.9,50c3.7,3.7,9.7,3.7,13.4,0c3.7-3.7,3.7-9.7,0-13.4    c-27.5-27.3-55.9-45.3-83.3-54.5c-22.6-7.6-44.5-9.1-64.7-4.9c-20.4,4.2-38.9,14.3-54.5,30c-10.2,10.3-19.2,23-26.5,38.1    l-16.2-4.5C809.6,705.4,813.6,720.6,817.9,736.8z" clip-rule="evenodd"/><path fill="#61a0e0" fill-rule="evenodd" d="M816.1,731.9l16.7-16.3l16.7-16.3l-12-3.3l-1.1-0.3l0.5-1c3-5.9,6.4-11.3,9.9-16.3c3.6-5.1,7.5-9.7,11.6-13.8    c6.5-6.5,13.6-11.9,21.2-16.1c7.6-4.2,15.8-7.2,24.3-9c8.6-1.8,17.6-2.3,26.9-1.6c9.2,0.7,18.7,2.7,28.4,6    c12.6,4.2,25.5,10.6,38.5,19.2c12.6,8.3,25.3,18.6,37.8,31.1c1.7,1.7,3.9,2.5,6,2.5c2.2,0,4.4-0.8,6-2.5c1.7-1.7,2.5-3.9,2.5-6    c0-2.2-0.8-4.4-2.5-6c-13.5-13.4-27.2-24.5-40.9-33.5c-14.1-9.2-28.2-16.2-42-20.8c-11.2-3.7-22.2-6-32.9-6.8    c-10.8-0.8-21.3-0.2-31.3,1.9c-10.1,2.1-19.8,5.7-28.9,10.7c-9,5-17.4,11.3-25.1,19.1c-5.1,5.1-9.9,10.9-14.3,17.3    c-4.4,6.3-8.4,13.1-12,20.5l-0.3,0.7l-0.8-0.2l-14.7-4.1L816.1,731.9L816.1,731.9z M834.2,717l-17.9,17.4l-1.2,1.1l-0.4-1.6    L802,685.7l-0.4-1.6l1.6,0.4l15.5,4.3c3.6-7.2,7.5-13.9,11.8-20.1c4.5-6.4,9.4-12.3,14.5-17.5c7.8-7.9,16.4-14.4,25.6-19.4    c9.2-5.1,19.1-8.7,29.4-10.9c10.2-2.1,20.9-2.8,31.9-2c10.9,0.8,22,3.1,33.3,6.9c14,4.7,28.2,11.7,42.5,21    c13.8,9,27.6,20.3,41.2,33.8c2,2,3.1,4.7,3.1,7.4c0,2.7-1,5.3-3,7.4c-2,2-4.7,3.1-7.4,3.1c-2.7,0-5.3-1-7.4-3    c-12.4-12.4-25-22.6-37.5-30.8c-12.9-8.5-25.6-14.8-38.1-18.9c-9.5-3.2-18.9-5.2-28-5.9c-9.1-0.7-18-0.2-26.4,1.5    c-8.3,1.7-16.3,4.7-23.7,8.8c-7.4,4.1-14.4,9.4-20.7,15.8c-4,4.1-7.8,8.6-11.4,13.5c-3.3,4.6-6.4,9.6-9.3,15l12.5,3.5l1.6,0.4    l-1.2,1.1L834.2,717z" clip-rule="evenodd"/></g><g><path fill="#fff" fill-rule="evenodd" d="M531.2,895.3c0-23,18.6-41.6,41.6-41.6c23,0,41.6,18.6,41.6,41.6c0,23-18.6,41.6-41.6,41.6    C549.8,936.9,531.2,918.3,531.2,895.3L531.2,895.3z M572.8,944c26.9,0,48.7-21.8,48.7-48.7c0-26.9-21.8-48.7-48.7-48.7    c-26.9,0-48.7,21.8-48.7,48.7C524,922.2,545.8,944,572.8,944z" clip-rule="evenodd"/><path fill="#fff" fill-rule="evenodd" d="M572.8,872.8c-12.4,0-22.5,10.1-22.5,22.5c0,12.4,10.1,22.5,22.5,22.5c12.4,0,22.5-10.1,22.5-22.5    C595.2,882.9,585.2,872.8,572.8,872.8z" clip-rule="evenodd"/></g><g><path fill="#fff" fill-rule="evenodd" d="M1625.6,1052.9c0-11.5,9.3-20.8,20.8-20.8s20.8,9.3,20.8,20.8c0,11.5-9.3,20.8-20.8,20.8    S1625.6,1064.4,1625.6,1052.9L1625.6,1052.9z M1646.4,1077.3c13.5,0,24.4-10.9,24.4-24.4c0-13.5-10.9-24.4-24.4-24.4    c-13.5,0-24.4,10.9-24.4,24.4C1622,1066.4,1632.9,1077.3,1646.4,1077.3z" clip-rule="evenodd"/><circle cx="1646.4" cy="1052.9" r="11.2" fill="#fff" fill-rule="evenodd" clip-rule="evenodd"/></g><g><path fill="#fff" fill-rule="evenodd" d="M337.7,1075.9c0-11.5,9.3-20.8,20.8-20.8c11.5,0,20.8,9.3,20.8,20.8c0,11.5-9.3,20.8-20.8,20.8    C347,1096.7,337.7,1087.4,337.7,1075.9L337.7,1075.9z M358.5,1100.3c13.5,0,24.4-10.9,24.4-24.4c0-13.5-10.9-24.4-24.4-24.4    c-13.5,0-24.4,10.9-24.4,24.4C334.1,1089.3,345,1100.3,358.5,1100.3z" clip-rule="evenodd"/><path fill="#fff" fill-rule="evenodd" d="M358.5,1064.6c-6.2,0-11.2,5-11.2,11.2c0,6.2,5,11.2,11.2,11.2c6.2,0,11.2-5,11.2-11.2    C369.7,1069.7,364.7,1064.6,358.5,1064.6z" clip-rule="evenodd"/></g></svg>